<svg width="207" height="207" viewBox="0 0 207 207" fill="none" xmlns="http://www.w3.org/2000/svg">
<g filter="url(#filter0_d)">
<circle cx="103.5" cy="103.5" r="80.5" transform="rotate(-90 103.5 103.5)" fill="url(#paint0_linear)"/>
<circle cx="103.5" cy="103.5" r="77.5" transform="rotate(-90 103.5 103.5)" stroke="white" stroke-width="6"/>
</g>
<path d="M98.9531 107.781C98.9531 117.219 97 124.438 93.0938 129.438C89.1875 134.438 83.4688 136.938 75.9375 136.938C68.5 136.938 62.8125 134.484 58.875 129.578C54.9375 124.672 52.9219 117.641 52.8281 108.484V95.9219C52.8281 86.3906 54.7969 79.1562 58.7344 74.2188C62.7031 69.2812 68.4062 66.8125 75.8438 66.8125C83.2812 66.8125 88.9688 69.2656 92.9062 74.1719C96.8438 79.0469 98.8594 86.0625 98.9531 95.2188V107.781ZM85.4062 94C85.4062 88.3438 84.625 84.2344 83.0625 81.6719C81.5312 79.0781 79.125 77.7812 75.8438 77.7812C72.6562 77.7812 70.2969 79.0156 68.7656 81.4844C67.2656 83.9219 66.4688 87.75 66.375 92.9688V109.562C66.375 115.125 67.125 119.266 68.625 121.984C70.1562 124.672 72.5938 126.016 75.9375 126.016C79.25 126.016 81.6406 124.719 83.1094 122.125C84.5781 119.531 85.3438 115.562 85.4062 110.219V94ZM121.922 95.875H129.141C132.578 95.875 135.125 95.0156 136.781 93.2969C138.438 91.5781 139.266 89.2969 139.266 86.4531C139.266 83.7031 138.438 81.5625 136.781 80.0312C135.156 78.5 132.906 77.7344 130.031 77.7344C127.438 77.7344 125.266 78.4531 123.516 79.8906C121.766 81.2969 120.891 83.1406 120.891 85.4219H107.344C107.344 81.8594 108.297 78.6719 110.203 75.8594C112.141 73.0156 114.828 70.7969 118.266 69.2031C121.734 67.6094 125.547 66.8125 129.703 66.8125C136.922 66.8125 142.578 68.5469 146.672 72.0156C150.766 75.4531 152.812 80.2031 152.812 86.2656C152.812 89.3906 151.859 92.2656 149.953 94.8906C148.047 97.5156 145.547 99.5312 142.453 100.938C146.297 102.312 149.156 104.375 151.031 107.125C152.938 109.875 153.891 113.125 153.891 116.875C153.891 122.938 151.672 127.797 147.234 131.453C142.828 135.109 136.984 136.938 129.703 136.938C122.891 136.938 117.312 135.141 112.969 131.547C108.656 127.953 106.5 123.203 106.5 117.297H120.047C120.047 119.859 121 121.953 122.906 123.578C124.844 125.203 127.219 126.016 130.031 126.016C133.25 126.016 135.766 125.172 137.578 123.484C139.422 121.766 140.344 119.5 140.344 116.688C140.344 109.875 136.594 106.469 129.094 106.469H121.922V95.875Z" fill="white"/>
<defs>
<filter id="filter0_d" x="0" y="0" width="207" height="207" filterUnits="userSpaceOnUse" color-interpolation-filters="sRGB">
<feFlood flood-opacity="0" result="BackgroundImageFix"/>
<feColorMatrix in="SourceAlpha" type="matrix" values="0 0 0 0 0 0 0 0 0 0 0 0 0 0 0 0 0 0 127 0"/>
<feMorphology radius="3" operator="dilate" in="SourceAlpha" result="effect1_dropShadow"/>
<feOffset/>
<feGaussianBlur stdDeviation="10"/>
<feColorMatrix type="matrix" values="0 0 0 0 0 0 0 0 0 0 0 0 0 0 0 0 0 0 0.13 0"/>
<feBlend mode="normal" in2="BackgroundImageFix" result="effect1_dropShadow"/>
<feBlend mode="normal" in="SourceGraphic" in2="effect1_dropShadow" result="shape"/>
</filter>
<linearGradient id="paint0_linear" x1="103" y1="-15.5" x2="103.5" y2="184" gradientUnits="userSpaceOnUse">
<stop stop-color="#25B459"/>
<stop offset="0.705351" stop-color="#69FC00"/>
</linearGradient>
</defs>
</svg>
