<svg width="192" height="59" viewBox="0 0 192 59" fill="none" xmlns="http://www.w3.org/2000/svg">
<path d="M183.671 58.1019H7.38525C3.30663 58.1019 6.10352e-05 54.7958 6.10352e-05 50.7167V7.38519C6.10352e-05 3.30657 3.3062 0 7.38525 0H183.671C187.75 0 191.057 3.30657 191.057 7.38519V50.7167C191.056 54.7953 187.75 58.1019 183.671 58.1019Z" fill="#002534"/>
<path d="M11.8612 23.7405C8.76176 29.1188 10.7322 37.2808 14.1591 42.2295C15.8703 44.7037 17.602 46.9247 19.9746 46.9247C20.0193 46.9247 20.064 46.9239 20.1096 46.9221C21.2243 46.8778 22.0302 46.5344 22.8087 46.2026C23.6828 45.8301 24.5877 45.4449 26.0059 45.4449C27.355 45.4449 28.2165 45.8175 29.0489 46.1779C29.87 46.5335 30.715 46.9004 31.9642 46.877C34.6364 46.8275 36.2773 44.431 37.725 42.3164C39.2357 40.1088 39.9934 37.966 40.2487 37.1466L40.2591 37.114C40.3077 36.9685 40.2387 36.8096 40.0993 36.7454C40.0954 36.7432 40.0811 36.7375 40.0772 36.7358C39.6065 36.5434 35.4788 34.7119 35.4354 29.721C35.3954 25.6658 38.5322 23.5191 39.161 23.1296L39.1905 23.1109C39.2587 23.067 39.3064 22.9976 39.3221 22.9181C39.3381 22.8386 39.3216 22.7557 39.2756 22.6888C37.1101 19.5199 33.7918 19.0427 32.4553 18.9854C32.2617 18.9663 32.0615 18.9563 31.8604 18.9563C30.2912 18.9563 28.7875 19.549 27.5799 20.0253C26.7462 20.3541 26.0259 20.6376 25.5295 20.6376C24.9711 20.6376 24.2469 20.3501 23.4084 20.0175C22.2868 19.5725 21.0154 19.0679 19.6702 19.0679C19.6376 19.0679 19.6064 19.0683 19.5755 19.0692C16.4474 19.1156 13.4908 20.9059 11.8612 23.7405Z" fill="white"/>
<path d="M32.4588 10.264C30.5638 10.3413 28.2911 11.5076 26.9329 13.099C25.7779 14.436 24.6506 16.6661 24.9476 18.9141C24.9663 19.0548 25.081 19.1633 25.2225 19.1742C25.3502 19.1842 25.4804 19.1889 25.6111 19.1889C27.4639 19.1889 29.4622 18.1642 30.8274 16.5137C32.2638 14.7712 32.9902 12.5345 32.7705 10.5315C32.7527 10.3743 32.6146 10.2579 32.4588 10.264Z" fill="white"/>
<path d="M54.1652 18.8109H57.7581C60.6376 18.8109 62.5833 16.9171 62.5833 14.2711C62.5833 11.625 60.6376 9.7313 57.7581 9.7313H54.1652V18.8109ZM54.8267 18.2142V10.328H57.7062C60.2745 10.328 61.9217 11.9623 61.9217 14.2711C61.9217 16.5799 60.2745 18.2142 57.7062 18.2142H54.8267Z" fill="white"/>
<path d="M67.3198 18.8628C69.2655 18.8628 70.7052 17.436 70.7052 15.4255C70.7052 13.415 69.2655 11.9882 67.3198 11.9882C65.3742 11.9882 63.9345 13.415 63.9345 15.4255C63.9345 17.436 65.3742 18.8628 67.3198 18.8628ZM67.3198 18.2791C65.7633 18.2791 64.596 17.1247 64.596 15.4255C64.596 13.7263 65.7633 12.5719 67.3198 12.5719C68.8763 12.5719 70.0437 13.7263 70.0437 15.4255C70.0437 17.1247 68.8763 18.2791 67.3198 18.2791Z" fill="white"/>
<path d="M81.6068 12.0401L79.324 18.0716L77.0281 12.0401H76.4704L74.1616 18.0845L71.9046 12.0401H71.282L73.8503 18.8109H74.4469L76.7428 12.9351L79.0256 18.8109H79.6353L82.2035 12.0401H81.6068Z" fill="white"/>
<path d="M87.0196 11.9882C85.7355 11.9882 84.7886 12.5589 84.3347 13.5058V12.0401H83.7121V18.8109H84.3606V15.205C84.3606 13.5966 85.3334 12.5719 86.9288 12.5719C88.3037 12.5719 89.1209 13.3761 89.1209 14.9067V18.8109H89.7694V14.8548C89.7694 12.961 88.6669 11.9882 87.0196 11.9882Z" fill="white"/>
<path d="M92.4395 18.8109H93.0881V9.18652H92.4395V18.8109Z" fill="white"/>
<path d="M98.4676 18.8628C100.413 18.8628 101.853 17.436 101.853 15.4255C101.853 13.415 100.413 11.9882 98.4676 11.9882C96.522 11.9882 95.0822 13.415 95.0822 15.4255C95.0822 17.436 96.522 18.8628 98.4676 18.8628ZM98.4676 18.2791C96.9111 18.2791 95.7437 17.1247 95.7437 15.4255C95.7437 13.7263 96.9111 12.5719 98.4676 12.5719C100.024 12.5719 101.191 13.7263 101.191 15.4255C101.191 17.1247 100.024 18.2791 98.4676 18.2791Z" fill="white"/>
<path d="M106.123 11.9882C105.072 11.9882 104.086 12.3514 103.412 12.9481L103.736 13.415C104.294 12.9092 105.137 12.5589 106.071 12.5589C107.394 12.5589 108.081 13.2334 108.081 14.4916V15.0364H105.759C103.879 15.0364 103.23 15.9054 103.23 16.9301C103.23 18.0845 104.151 18.8628 105.669 18.8628C106.849 18.8628 107.679 18.3829 108.107 17.6046V18.8109H108.73V14.5175C108.73 12.8443 107.796 11.9882 106.123 11.9882ZM105.759 18.331C104.566 18.331 103.879 17.7862 103.879 16.9042C103.879 16.1259 104.371 15.5422 105.772 15.5422H108.081V16.8134C107.692 17.7862 106.901 18.331 105.759 18.331Z" fill="white"/>
<path d="M116.784 9.18652V13.6096C116.24 12.5849 115.228 11.9882 114.022 11.9882C112.115 11.9882 110.675 13.3891 110.675 15.4255C110.675 17.449 112.115 18.8628 114.022 18.8628C115.241 18.8628 116.266 18.2661 116.797 17.2155V18.8109H117.433V9.18652H116.784ZM114.06 18.2791C112.504 18.2791 111.337 17.1247 111.337 15.4255C111.337 13.7263 112.504 12.5719 114.06 12.5719C115.617 12.5719 116.784 13.7263 116.784 15.4255C116.784 17.1247 115.617 18.2791 114.06 18.2791Z" fill="white"/>
<path d="M126.145 18.8628C128.09 18.8628 129.53 17.436 129.53 15.4255C129.53 13.415 128.09 11.9882 126.145 11.9882C124.199 11.9882 122.759 13.415 122.759 15.4255C122.759 17.436 124.199 18.8628 126.145 18.8628ZM126.145 18.2791C124.588 18.2791 123.421 17.1247 123.421 15.4255C123.421 13.7263 124.588 12.5719 126.145 12.5719C127.701 12.5719 128.869 13.7263 128.869 15.4255C128.869 17.1247 127.701 18.2791 126.145 18.2791Z" fill="white"/>
<path d="M134.85 11.9882C133.565 11.9882 132.619 12.5589 132.165 13.5058V12.0401H131.542V18.8109H132.191V15.205C132.191 13.5966 133.163 12.5719 134.759 12.5719C136.134 12.5719 136.951 13.3761 136.951 14.9067V18.8109H137.599V14.8548C137.599 12.961 136.497 11.9882 134.85 11.9882Z" fill="white"/>
<path d="M146.688 17.9289C146.416 18.1753 146.039 18.305 145.637 18.305C144.807 18.305 144.379 17.8251 144.379 16.9561V12.5979H146.532V12.0401H144.379V10.5614H143.731V12.0401H142.485V12.5979H143.731V17.0209C143.731 18.1623 144.379 18.8628 145.572 18.8628C146.078 18.8628 146.623 18.7071 146.96 18.3829L146.688 17.9289Z" fill="white"/>
<path d="M152.077 11.9882C150.818 11.9882 149.884 12.533 149.417 13.4539V9.18652H148.769V18.8109H149.417V15.205C149.417 13.5966 150.39 12.5719 151.986 12.5719C153.361 12.5719 154.178 13.3761 154.178 14.9067V18.8109H154.826V14.8548C154.826 12.961 153.724 11.9882 152.077 11.9882Z" fill="white"/>
<path d="M163.242 15.3996C163.242 13.3891 161.867 11.9882 160.012 11.9882C158.158 11.9882 156.77 13.415 156.77 15.4255C156.77 17.436 158.209 18.8628 160.259 18.8628C161.284 18.8628 162.217 18.4866 162.814 17.7603L162.438 17.3322C161.919 17.9678 161.128 18.2791 160.272 18.2791C158.65 18.2791 157.47 17.1895 157.405 15.5812H163.229C163.229 15.5163 163.242 15.4514 163.242 15.3996ZM160.012 12.5589C161.452 12.5589 162.516 13.6096 162.607 15.0753H157.418C157.522 13.5966 158.573 12.5589 160.012 12.5589Z" fill="white"/>
<path d="M65.1055 41.9634H68.12L61.1156 26.4472H58.2783L51.2961 41.9634H54.2663L55.7958 38.3725H63.5538L65.1055 41.9634ZM56.7711 36.1116L59.6748 29.3288L62.6007 36.1116H56.7711Z" fill="white"/>
<path d="M76.3884 29.9938C74.7703 29.9938 73.396 30.5479 72.4651 31.6784V30.1268H69.8273V46.2636H72.5981V40.5226C73.5512 41.6087 74.8812 42.1186 76.3884 42.1186C79.8463 42.1186 82.3954 39.7246 82.3954 36.0451C82.3954 32.3877 79.8463 29.9938 76.3884 29.9938ZM76.0781 39.7468C74.0832 39.7468 72.5537 38.306 72.5537 36.0451C72.5537 33.7842 74.0832 32.3434 76.0781 32.3434C78.0731 32.3434 79.5803 33.7842 79.5803 36.0451C79.5803 38.306 78.0731 39.7468 76.0781 39.7468Z" fill="white"/>
<path d="M91.5842 29.9938C89.9661 29.9938 88.5918 30.5479 87.6609 31.6784V30.1268H85.0231V46.2636H87.7939V40.5226C88.747 41.6087 90.077 42.1186 91.5842 42.1186C95.0421 42.1186 97.5912 39.7246 97.5912 36.0451C97.5912 32.3877 95.0421 29.9938 91.5842 29.9938ZM91.2739 39.7468C89.279 39.7468 87.7495 38.306 87.7495 36.0451C87.7495 33.7842 89.279 32.3434 91.2739 32.3434C93.2688 32.3434 94.7761 33.7842 94.7761 36.0451C94.7761 38.306 93.2688 39.7468 91.2739 39.7468Z" fill="white"/>
<path d="M111.421 42.1851C115.677 42.1851 117.694 40.0571 117.694 37.5745C117.694 31.8779 108.495 34.028 108.495 30.7253C108.495 29.5505 109.47 28.6195 111.864 28.6195C113.216 28.6195 114.746 29.0185 116.142 29.8386L117.051 27.5999C115.699 26.7132 113.748 26.2256 111.886 26.2256C107.63 26.2256 105.636 28.3535 105.636 30.8583C105.636 36.6214 114.857 34.427 114.857 37.774C114.857 38.9267 113.837 39.7911 111.421 39.7911C109.515 39.7911 107.542 39.0818 106.301 38.0844L105.303 40.3231C106.589 41.4314 109.005 42.1851 111.421 42.1851Z" fill="white"/>
<path d="M126.625 39.3478C126.203 39.6803 125.649 39.8355 125.073 39.8355C124.009 39.8355 123.433 39.2148 123.433 38.0622V32.4321H126.602V30.2155H123.433V27.5112H120.662V30.2155H118.711V32.4321H120.662V38.1287C120.662 40.7443 122.147 42.1186 124.741 42.1186C125.738 42.1186 126.735 41.8526 127.4 41.3206L126.625 39.3478Z" fill="white"/>
<path d="M134.61 42.1186C138.289 42.1186 140.927 39.5916 140.927 36.0451C140.927 32.4985 138.289 29.9938 134.61 29.9938C130.975 29.9938 128.315 32.4985 128.315 36.0451C128.315 39.5916 130.975 42.1186 134.61 42.1186ZM134.61 39.7468C132.615 39.7468 131.108 38.306 131.108 36.0451C131.108 33.7842 132.615 32.3434 134.61 32.3434C136.627 32.3434 138.134 33.7842 138.134 36.0451C138.134 38.306 136.627 39.7468 134.61 39.7468Z" fill="white"/>
<path d="M146.214 31.8557V30.1268H143.577V41.9634H146.347V36.2224C146.347 33.8063 147.677 32.565 149.783 32.565C149.983 32.565 150.182 32.5872 150.426 32.6315V29.9938C148.453 29.9938 147.012 30.6144 146.214 31.8557Z" fill="white"/>
<path d="M163.796 36.1116C163.796 32.4099 161.269 29.9938 157.811 29.9938C154.286 29.9938 151.693 32.5207 151.693 36.0451C151.693 39.5695 154.264 42.1186 158.232 42.1186C160.271 42.1186 161.934 41.4536 162.998 40.1901L161.512 38.4834C160.67 39.3478 159.628 39.769 158.298 39.769C156.237 39.769 154.796 38.6607 154.464 36.9317H163.751C163.773 36.6657 163.796 36.3333 163.796 36.1116ZM157.811 32.2104C159.628 32.2104 160.936 33.3852 161.158 35.092H154.441C154.707 33.363 156.015 32.2104 157.811 32.2104Z" fill="white"/>
</svg>
