<svg width="175" height="53" viewBox="0 0 175 53" fill="none" xmlns="http://www.w3.org/2000/svg">
<path d="M167.351 52.9394H6.72899C3.01278 52.9394 0 49.927 0 46.2104V6.72899C0 3.01278 3.01238 0 6.72899 0H167.352C171.068 0 174.081 3.01278 174.081 6.72899V46.2104C174.08 49.9266 171.068 52.9394 167.351 52.9394Z" fill="white"/>
<path d="M10.8072 21.6306C7.98316 26.531 9.77856 33.9678 12.9009 38.4768C14.4601 40.7312 16.0379 42.7549 18.1997 42.7549C18.2405 42.7549 18.2812 42.7541 18.3227 42.7525C19.3383 42.7121 20.0727 42.3992 20.782 42.0969C21.5784 41.7575 22.403 41.4065 23.6951 41.4065C24.9243 41.4065 25.7093 41.746 26.4677 42.0744C27.2159 42.3984 27.9858 42.7327 29.124 42.7113C31.5588 42.6662 33.0539 40.4827 34.373 38.556C35.7494 36.5446 36.4398 34.5921 36.6724 33.8455L36.6819 33.8158C36.7262 33.6833 36.6633 33.5385 36.5363 33.4799C36.5327 33.478 36.5197 33.4728 36.5161 33.4712C36.0872 33.296 32.3263 31.6272 32.2868 27.0797C32.2504 23.3849 35.1084 21.4288 35.6813 21.074L35.7082 21.0569C35.7703 21.017 35.8139 20.9537 35.8281 20.8813C35.8427 20.8089 35.8277 20.7333 35.7858 20.6724C33.8127 17.785 30.7893 17.3502 29.5715 17.298C29.395 17.2806 29.2127 17.2715 29.0295 17.2715C27.5996 17.2715 26.2296 17.8115 25.1293 18.2455C24.3697 18.545 23.7133 18.8034 23.2611 18.8034C22.7523 18.8034 22.0924 18.5415 21.3284 18.2384C20.3065 17.8329 19.148 17.3732 17.9224 17.3732C17.8927 17.3732 17.8642 17.3736 17.8361 17.3743C14.9859 17.4167 12.292 19.0479 10.8072 21.6306Z" fill="#002534"/>
<path d="M29.5746 9.35177C27.8481 9.42219 25.7773 10.4849 24.5398 11.9349C23.4874 13.153 22.4603 15.185 22.7309 17.2333C22.7479 17.3614 22.8524 17.4604 22.9814 17.4702C23.0977 17.4793 23.2164 17.4837 23.3354 17.4837C25.0236 17.4837 26.8443 16.55 28.0882 15.0462C29.397 13.4585 30.0589 11.4206 29.8587 9.59548C29.8425 9.45226 29.7167 9.34623 29.5746 9.35177Z" fill="#002534"/>
<path d="M49.3524 17.1393H52.6261C55.2497 17.1393 57.0225 15.4139 57.0225 13.0029C57.0225 10.592 55.2497 8.86649 52.6261 8.86649H49.3524V17.1393ZM49.9551 16.5957V9.41013H52.5788C54.9188 9.41013 56.4198 10.8992 56.4198 13.0029C56.4198 15.1066 54.9188 16.5957 52.5788 16.5957H49.9551Z" fill="#002534"/>
<path d="M61.3382 17.1866C63.111 17.1866 64.4228 15.8866 64.4228 14.0547C64.4228 12.2229 63.111 10.9229 61.3382 10.9229C59.5655 10.9229 58.2536 12.2229 58.2536 14.0547C58.2536 15.8866 59.5655 17.1866 61.3382 17.1866ZM61.3382 16.6548C59.92 16.6548 58.8564 15.603 58.8564 14.0547C58.8564 12.5065 59.92 11.4547 61.3382 11.4547C62.7564 11.4547 63.8201 12.5065 63.8201 14.0547C63.8201 15.603 62.7564 16.6548 61.3382 16.6548Z" fill="#002534"/>
<path d="M74.3558 10.9702L72.2757 16.4657L70.1839 10.9702H69.6757L67.572 16.4775L65.5156 10.9702H64.9484L67.2884 17.1393H67.832L69.9239 11.7856L72.0039 17.1393H72.5594L74.8994 10.9702H74.3558Z" fill="#002534"/>
<path d="M79.2876 10.9229C78.1176 10.9229 77.2549 11.4429 76.8412 12.3056V10.9702H76.2739V17.1393H76.8649V13.8538C76.8649 12.3884 77.7512 11.4547 79.2049 11.4547C80.4576 11.4547 81.2022 12.1874 81.2022 13.582V17.1393H81.7931V13.5347C81.7931 11.8093 80.7886 10.9229 79.2876 10.9229Z" fill="#002534"/>
<path d="M84.2259 17.1393H84.8169V8.37012H84.2259V17.1393Z" fill="#002534"/>
<path d="M89.7184 17.1866C91.4912 17.1866 92.803 15.8866 92.803 14.0547C92.803 12.2229 91.4912 10.9229 89.7184 10.9229C87.9457 10.9229 86.6338 12.2229 86.6338 14.0547C86.6338 15.8866 87.9457 17.1866 89.7184 17.1866ZM89.7184 16.6548C88.3002 16.6548 87.2366 15.603 87.2366 14.0547C87.2366 12.5065 88.3002 11.4547 89.7184 11.4547C91.1366 11.4547 92.2003 12.5065 92.2003 14.0547C92.2003 15.603 91.1366 16.6548 89.7184 16.6548Z" fill="#002534"/>
<path d="M96.6932 10.9229C95.7359 10.9229 94.8377 11.2538 94.2232 11.7974L94.5186 12.2229C95.0268 11.762 95.795 11.4429 96.6459 11.4429C97.8514 11.4429 98.4778 12.0574 98.4778 13.2038V13.7002H96.3623C94.6486 13.7002 94.0577 14.492 94.0577 15.4257C94.0577 16.4775 94.8968 17.1866 96.2796 17.1866C97.355 17.1866 98.1114 16.7493 98.5014 16.0402V17.1393H99.0687V13.2275C99.0687 11.7029 98.2178 10.9229 96.6932 10.9229ZM96.3623 16.7021C95.275 16.7021 94.6486 16.2057 94.6486 15.402C94.6486 14.6929 95.0977 14.1611 96.3741 14.1611H98.4778V15.3193C98.1232 16.2057 97.4023 16.7021 96.3623 16.7021Z" fill="#002534"/>
<path d="M106.408 8.37012V12.4002C105.911 11.4665 104.989 10.9229 103.89 10.9229C102.153 10.9229 100.841 12.1993 100.841 14.0547C100.841 15.8984 102.153 17.1866 103.89 17.1866C105.001 17.1866 105.935 16.643 106.42 15.6857V17.1393H106.999V8.37012H106.408ZM103.926 16.6548C102.508 16.6548 101.444 15.603 101.444 14.0547C101.444 12.5065 102.508 11.4547 103.926 11.4547C105.344 11.4547 106.408 12.5065 106.408 14.0547C106.408 15.603 105.344 16.6548 103.926 16.6548Z" fill="#002534"/>
<path d="M114.936 17.1866C116.709 17.1866 118.021 15.8866 118.021 14.0547C118.021 12.2229 116.709 10.9229 114.936 10.9229C113.164 10.9229 111.852 12.2229 111.852 14.0547C111.852 15.8866 113.164 17.1866 114.936 17.1866ZM114.936 16.6548C113.518 16.6548 112.454 15.603 112.454 14.0547C112.454 12.5065 113.518 11.4547 114.936 11.4547C116.355 11.4547 117.418 12.5065 117.418 14.0547C117.418 15.603 116.355 16.6548 114.936 16.6548Z" fill="#002534"/>
<path d="M122.868 10.9229C121.698 10.9229 120.835 11.4429 120.421 12.3056V10.9702H119.854V17.1393H120.445V13.8538C120.445 12.3884 121.331 11.4547 122.785 11.4547C124.038 11.4547 124.782 12.1874 124.782 13.582V17.1393H125.373V13.5347C125.373 11.8093 124.369 10.9229 122.868 10.9229Z" fill="#002534"/>
<path d="M133.654 16.3357C133.406 16.5602 133.063 16.6784 132.697 16.6784C131.941 16.6784 131.551 16.2411 131.551 15.4493V11.4783H133.512V10.9702H131.551V9.62286H130.96V10.9702H129.825V11.4783H130.96V15.5084C130.96 16.5484 131.551 17.1866 132.638 17.1866C133.099 17.1866 133.595 17.0448 133.902 16.7493L133.654 16.3357Z" fill="#002534"/>
<path d="M138.564 10.9229C137.418 10.9229 136.567 11.4193 136.141 12.2584V8.37012H135.55V17.1393H136.141V13.8538C136.141 12.3884 137.028 11.4547 138.481 11.4547C139.734 11.4547 140.479 12.1874 140.479 13.582V17.1393H141.07V13.5347C141.07 11.8093 140.065 10.9229 138.564 10.9229Z" fill="#002534"/>
<path d="M148.738 14.0311C148.738 12.1993 147.485 10.9229 145.795 10.9229C144.105 10.9229 142.84 12.2229 142.84 14.0547C142.84 15.8866 144.152 17.1866 146.019 17.1866C146.953 17.1866 147.804 16.8439 148.348 16.1821L148.005 15.792C147.532 16.3711 146.811 16.6548 146.031 16.6548C144.554 16.6548 143.478 15.662 143.419 14.1966H148.726C148.726 14.1375 148.738 14.0784 148.738 14.0311ZM145.795 11.4429C147.107 11.4429 148.076 12.4002 148.159 13.7357H143.431C143.526 12.3884 144.483 11.4429 145.795 11.4429Z" fill="#002534"/>
<path d="M59.3206 38.2345H62.0673L55.6852 24.097H53.1001L46.7382 38.2345H49.4445L50.8381 34.9627H57.9069L59.3206 38.2345ZM51.7267 32.9026L54.3725 26.7225L57.0384 32.9026H51.7267Z" fill="#002534"/>
<path d="M69.6011 27.3284C68.1267 27.3284 66.8746 27.8333 66.0263 28.8633V27.4496H63.6229V42.1526H66.1475V36.9217C67.0159 37.9114 68.2277 38.3759 69.6011 38.3759C72.7517 38.3759 75.0743 36.1947 75.0743 32.842C75.0743 29.5096 72.7517 27.3284 69.6011 27.3284ZM69.3183 36.2149C67.5006 36.2149 66.1071 34.9021 66.1071 32.842C66.1071 30.782 67.5006 29.4692 69.3183 29.4692C71.136 29.4692 72.5094 30.782 72.5094 32.842C72.5094 34.9021 71.136 36.2149 69.3183 36.2149Z" fill="#002534"/>
<path d="M83.4467 27.3284C81.9723 27.3284 80.7202 27.8333 79.8719 28.8633V27.4496H77.4685V42.1526H79.9931V36.9217C80.8615 37.9114 82.0733 38.3759 83.4467 38.3759C86.5973 38.3759 88.9199 36.1947 88.9199 32.842C88.9199 29.5096 86.5973 27.3284 83.4467 27.3284ZM83.1639 36.2149C81.3463 36.2149 79.9527 34.9021 79.9527 32.842C79.9527 30.782 81.3463 29.4692 83.1639 29.4692C84.9816 29.4692 86.355 30.782 86.355 32.842C86.355 34.9021 84.9816 36.2149 83.1639 36.2149Z" fill="#002534"/>
<path d="M101.521 38.4365C105.398 38.4365 107.236 36.4976 107.236 34.2356C107.236 29.0451 98.8548 31.0042 98.8548 27.9949C98.8548 26.9245 99.7435 26.0762 101.925 26.0762C103.157 26.0762 104.55 26.4398 105.823 27.187L106.651 25.1472C105.419 24.3393 103.641 23.895 101.945 23.895C98.0672 23.895 96.2495 25.8339 96.2495 28.1161C96.2495 33.3672 104.651 31.3677 104.651 34.4174C104.651 35.4676 103.722 36.2552 101.521 36.2552C99.7839 36.2552 97.9864 35.609 96.8554 34.7001L95.9466 36.74C97.1179 37.7498 99.3194 38.4365 101.521 38.4365Z" fill="#002534"/>
<path d="M115.374 35.8513C114.99 36.1543 114.485 36.2956 113.96 36.2956C112.99 36.2956 112.465 35.7301 112.465 34.6799V29.55H115.353V27.5304H112.465V25.0664H109.941V27.5304H108.164V29.55H109.941V34.7405C109.941 37.1237 111.294 38.3759 113.657 38.3759C114.566 38.3759 115.475 38.1335 116.081 37.6488L115.374 35.8513Z" fill="#002534"/>
<path d="M122.649 38.3759C126.002 38.3759 128.405 36.0735 128.405 32.842C128.405 29.6106 126.002 27.3284 122.649 27.3284C119.337 27.3284 116.914 29.6106 116.914 32.842C116.914 36.0735 119.337 38.3759 122.649 38.3759ZM122.649 36.2149C120.832 36.2149 119.458 34.9021 119.458 32.842C119.458 30.782 120.832 29.4692 122.649 29.4692C124.487 29.4692 125.861 30.782 125.861 32.842C125.861 34.9021 124.487 36.2149 122.649 36.2149Z" fill="#002534"/>
<path d="M133.223 29.0249V27.4496H130.82V38.2345H133.344V33.0036C133.344 30.8022 134.556 29.6712 136.475 29.6712C136.656 29.6712 136.838 29.6914 137.06 29.7318V27.3284C135.263 27.3284 133.95 27.8939 133.223 29.0249Z" fill="#002534"/>
<path d="M149.242 32.9026C149.242 29.5298 146.939 27.3284 143.789 27.3284C140.578 27.3284 138.215 29.6308 138.215 32.842C138.215 36.0533 140.557 38.3759 144.173 38.3759C146.031 38.3759 147.545 37.77 148.515 36.6188L147.162 35.0637C146.394 35.8513 145.445 36.2351 144.233 36.2351C142.355 36.2351 141.042 35.2252 140.739 33.6499H149.201C149.222 33.4075 149.242 33.1046 149.242 32.9026ZM143.789 29.3481C145.445 29.3481 146.636 30.4185 146.838 31.9736H140.719C140.961 30.3983 142.153 29.3481 143.789 29.3481Z" fill="#002534"/>
</svg>
