<svg width="174" height="53" viewBox="0 0 174 53" fill="none" xmlns="http://www.w3.org/2000/svg">
<path d="M166.549 52.6852H6.69664C2.99797 52.6852 0 49.6872 0 45.9886V6.69664C0 2.99797 2.99797 0 6.69664 0H166.549C170.248 0 173.246 2.99833 173.246 6.69664V45.9889C173.246 49.6872 170.248 52.6852 166.549 52.6852Z" fill="white"/>
<path d="M54.6961 17.1623H55.343L51.5557 8.92905H50.9559L47.1686 17.1623H47.8155L48.8623 14.8452H53.6376L54.6961 17.1623ZM49.0975 14.3394L51.2499 9.58771L53.4141 14.3394H49.0975Z" fill="#002534"/>
<path d="M60.6677 11.0226L58.1977 16.5154L55.7513 11.0226H55.1279L57.8919 17.1623H58.4917L61.2675 11.0226H60.6677Z" fill="#002534"/>
<path d="M64.4396 10.9756C63.4869 10.9756 62.593 11.3049 61.9814 11.846L62.2754 12.2694C62.7812 11.8107 63.5457 11.4931 64.3925 11.4931C65.5922 11.4931 66.2156 12.1047 66.2156 13.2456V13.7396H64.1103C62.4048 13.7396 61.8167 14.5276 61.8167 15.4568C61.8167 16.5036 62.6518 17.2093 64.0279 17.2093C65.0982 17.2093 65.851 16.7741 66.2391 16.0684V17.1623H66.8037V13.2691C66.8037 11.7519 65.9569 10.9756 64.4396 10.9756ZM64.1103 16.7271C63.0282 16.7271 62.4048 16.2331 62.4048 15.4333C62.4048 14.7276 62.8518 14.1983 64.122 14.1983H66.2156V15.3509C65.8628 16.2331 65.1453 16.7271 64.1103 16.7271Z" fill="#002534"/>
<path d="M69.5207 9.5289C69.7913 9.5289 70.003 9.31719 70.003 9.04667C70.003 8.78791 69.7913 8.5762 69.5207 8.5762C69.2502 8.5762 69.0385 8.79967 69.0385 9.05843C69.0385 9.31719 69.2502 9.5289 69.5207 9.5289ZM69.2267 17.1623H69.8148V11.0226H69.2267V17.1623Z" fill="#002534"/>
<path d="M72.2935 17.1623H72.8816V8.43506H72.2935V17.1623Z" fill="#002534"/>
<path d="M77.4303 10.9756C76.4776 10.9756 75.5837 11.3049 74.9721 11.846L75.2662 12.2694C75.7719 11.8107 76.5364 11.4931 77.3833 11.4931C78.583 11.4931 79.2063 12.1047 79.2063 13.2456V13.7396H77.101C75.3955 13.7396 74.8075 14.5276 74.8075 15.4568C74.8075 16.5036 75.6425 17.2093 77.0187 17.2093C78.089 17.2093 78.8417 16.7741 79.2299 16.0684V17.1623H79.7944V13.2691C79.7944 11.7519 78.9476 10.9756 77.4303 10.9756ZM77.101 16.7271C76.0189 16.7271 75.3955 16.2331 75.3955 15.4333C75.3955 14.7276 75.8425 14.1983 77.1127 14.1983H79.2063V15.3509C78.8535 16.2331 78.136 16.7271 77.101 16.7271Z" fill="#002534"/>
<path d="M85.299 10.9756C84.2169 10.9756 83.2995 11.5049 82.8055 12.4223V8.43506H82.2174V17.1623H82.782V15.7156C83.2642 16.6565 84.1934 17.2093 85.299 17.2093C87.028 17.2093 88.3335 15.9273 88.3335 14.0924C88.3335 12.2459 87.028 10.9756 85.299 10.9756ZM85.2637 16.68C83.8523 16.68 82.7938 15.6332 82.7938 14.0924C82.7938 12.5517 83.8523 11.5049 85.2637 11.5049C86.6751 11.5049 87.7454 12.5517 87.7454 14.0924C87.7454 15.6332 86.6751 16.68 85.2637 16.68Z" fill="#002534"/>
<path d="M90.1543 17.1623H90.7424V8.43506H90.1543V17.1623Z" fill="#002534"/>
<path d="M98.4197 14.0689C98.4197 12.2459 97.173 10.9756 95.4911 10.9756C93.8092 10.9756 92.5507 12.2694 92.5507 14.0924C92.5507 15.9155 93.8562 17.2093 95.7146 17.2093C96.6437 17.2093 97.4906 16.8682 98.0316 16.2096L97.6905 15.8214C97.2201 16.3977 96.5026 16.68 95.7263 16.68C94.2561 16.68 93.1858 15.692 93.127 14.2336H98.408C98.408 14.1748 98.4197 14.116 98.4197 14.0689ZM95.4911 11.4931C96.7966 11.4931 97.7611 12.4458 97.8434 13.7749H93.1387C93.2328 12.434 94.1855 11.4931 95.4911 11.4931Z" fill="#002534"/>
<path d="M105.659 17.2093C107.424 17.2093 108.729 15.9155 108.729 14.0924C108.729 12.2694 107.424 10.9756 105.659 10.9756C103.895 10.9756 102.589 12.2694 102.589 14.0924C102.589 15.9155 103.895 17.2093 105.659 17.2093ZM105.659 16.68C104.248 16.68 103.189 15.6332 103.189 14.0924C103.189 12.5517 104.248 11.5049 105.659 11.5049C107.071 11.5049 108.129 12.5517 108.129 14.0924C108.129 15.6332 107.071 16.68 105.659 16.68Z" fill="#002534"/>
<path d="M113.553 10.9756C112.388 10.9756 111.53 11.4931 111.118 12.3517V11.0226H110.554V17.1623H111.142V13.8925C111.142 12.434 112.024 11.5049 113.47 11.5049C114.717 11.5049 115.458 12.2341 115.458 13.622V17.1623H116.046V13.5749C116.046 11.8577 115.046 10.9756 113.553 10.9756Z" fill="#002534"/>
<path d="M124.288 16.3625C124.041 16.5859 123.699 16.7035 123.335 16.7035C122.582 16.7035 122.194 16.2684 122.194 15.4803V11.5284H124.146V11.0226H122.194V9.6818H121.606V11.0226H120.477V11.5284H121.606V15.5391C121.606 16.5742 122.194 17.2093 123.276 17.2093C123.735 17.2093 124.229 17.0682 124.535 16.7741L124.288 16.3625Z" fill="#002534"/>
<path d="M129.174 10.9756C128.033 10.9756 127.186 11.4696 126.763 12.3047V8.43506H126.175V17.1623H126.763V13.8925C126.763 12.434 127.645 11.5049 129.091 11.5049C130.338 11.5049 131.079 12.2341 131.079 13.622V17.1623H131.667V13.5749C131.667 11.8577 130.668 10.9756 129.174 10.9756Z" fill="#002534"/>
<path d="M139.299 14.0689C139.299 12.2459 138.052 10.9756 136.37 10.9756C134.688 10.9756 133.43 12.2694 133.43 14.0924C133.43 15.9155 134.735 17.2093 136.593 17.2093C137.523 17.2093 138.369 16.8682 138.91 16.2096L138.569 15.8214C138.099 16.3977 137.381 16.68 136.605 16.68C135.135 16.68 134.065 15.692 134.006 14.2336H139.287C139.287 14.1748 139.299 14.116 139.299 14.0689ZM136.37 11.4931C137.675 11.4931 138.64 12.4458 138.722 13.7749H134.018C134.112 12.434 135.064 11.4931 136.37 11.4931Z" fill="#002534"/>
<path d="M56.6812 35.5503C55.7972 36.061 54.8347 36.2574 53.8526 36.2574C50.9454 36.2574 48.8829 34.2145 48.8829 31.4252C48.8829 28.577 50.9454 26.593 53.8722 26.593C55.3454 26.593 56.583 27.0841 57.6633 28.1644L59.2741 26.593C57.9776 25.1198 56.0526 24.3537 53.7544 24.3537C49.4525 24.3537 46.3096 27.3198 46.3096 31.4252C46.3096 35.5306 49.4525 38.4967 53.7151 38.4967C55.6597 38.4967 57.6633 37.9075 59.0973 36.7485V31.2681H56.6812V35.5503Z" fill="#002534"/>
<path d="M66.944 38.4378C70.2047 38.4378 72.5423 36.1985 72.5423 33.0556C72.5423 29.9127 70.2047 27.693 66.944 27.693C63.7225 27.693 61.3653 29.9127 61.3653 33.0556C61.3653 36.1985 63.7225 38.4378 66.944 38.4378ZM66.944 36.336C65.1761 36.336 63.8403 35.0592 63.8403 33.0556C63.8403 31.052 65.1761 29.7752 66.944 29.7752C68.7315 29.7752 70.0672 31.052 70.0672 33.0556C70.0672 35.0592 68.7315 36.336 66.944 36.336Z" fill="#002534"/>
<path d="M79.6046 38.4378C82.8653 38.4378 85.2029 36.1985 85.2029 33.0556C85.2029 29.9127 82.8653 27.693 79.6046 27.693C76.3831 27.693 74.0259 29.9127 74.0259 33.0556C74.0259 36.1985 76.3831 38.4378 79.6046 38.4378ZM79.6046 36.336C77.8367 36.336 76.501 35.0592 76.501 33.0556C76.501 31.052 77.8367 29.7752 79.6046 29.7752C81.3921 29.7752 82.7278 31.052 82.7278 33.0556C82.7278 35.0592 81.3921 36.336 79.6046 36.336Z" fill="#002534"/>
<path d="M95.6242 27.8109V29.2055C94.7599 28.1644 93.4634 27.693 91.9902 27.693C88.9848 27.693 86.6866 29.6966 86.6866 32.7413C86.6866 35.786 88.9848 37.8289 91.9902 37.8289C93.4045 37.8289 94.642 37.3771 95.5063 36.4342V36.9842C95.5063 39.1057 94.4849 40.1664 92.167 40.1664C90.7134 40.1664 89.2205 39.6753 88.2973 38.9093L87.1973 40.7557C88.3955 41.7379 90.3402 42.2486 92.3045 42.2486C95.9778 42.2486 97.9617 40.52 97.9617 36.7092V27.8109H95.6242ZM92.3634 35.7467C90.4973 35.7467 89.1616 34.5288 89.1616 32.7413C89.1616 30.9734 90.4973 29.7752 92.3634 29.7752C94.2099 29.7752 95.5456 30.9734 95.5456 32.7413C95.5456 34.5288 94.2099 35.7467 92.3634 35.7467Z" fill="#002534"/>
<path d="M101.19 38.3003H103.645V23.7251H101.19V38.3003Z" fill="#002534"/>
<path d="M116.729 33.1145C116.729 29.8341 114.489 27.693 111.425 27.693C108.302 27.693 106.004 29.9323 106.004 33.0556C106.004 36.1789 108.282 38.4378 111.798 38.4378C113.605 38.4378 115.079 37.8485 116.022 36.7289L114.706 35.2163C113.959 35.9824 113.036 36.3556 111.857 36.3556C110.03 36.3556 108.754 35.3735 108.459 33.8413H116.689C116.709 33.6056 116.729 33.311 116.729 33.1145ZM111.425 29.6573C113.036 29.6573 114.195 30.6984 114.391 32.2109H108.439C108.675 30.6788 109.834 29.6573 111.425 29.6573Z" fill="#002534"/>
<path d="M130.409 24.5501H124.752V38.3003H127.305V34.3324H130.409C134.023 34.3324 136.263 32.4663 136.263 29.4413C136.263 26.3966 134.023 24.5501 130.409 24.5501ZM130.291 32.1717H127.305V26.7109H130.291C132.53 26.7109 133.689 27.7127 133.689 29.4413C133.689 31.1699 132.53 32.1717 130.291 32.1717Z" fill="#002534"/>
<path d="M138.769 38.3003H141.224V23.7251H138.769V38.3003Z" fill="#002534"/>
<path d="M148.454 27.693C146.765 27.693 145.134 28.1252 144.015 28.9895L144.977 30.777C145.763 30.1288 146.981 29.7359 148.159 29.7359C149.908 29.7359 150.772 30.5806 150.772 32.0145V32.1717H148.061C144.879 32.1717 143.7 33.5467 143.7 35.2949C143.7 37.1217 145.213 38.4378 147.609 38.4378C149.181 38.4378 150.32 37.9271 150.91 37.0235V38.3003H153.227V32.152C153.227 29.127 151.479 27.693 148.454 27.693ZM148.12 36.6503C146.863 36.6503 146.117 36.0806 146.117 35.1967C146.117 34.4306 146.568 33.802 148.238 33.802H150.772V35.0199C150.36 36.1003 149.318 36.6503 148.12 36.6503Z" fill="#002534"/>
<path d="M163.651 27.8109L160.331 35.5699L157.031 27.8109H154.478L159.055 38.3396L158.878 38.7521C158.406 39.7932 157.896 40.2057 157.031 40.2057C156.364 40.2057 155.696 39.9307 155.224 39.4789L154.242 41.2861C154.91 41.895 156.01 42.2486 157.051 42.2486C158.799 42.2486 160.135 41.5218 161.098 39.145L166.008 27.8109H163.651Z" fill="#002534"/>
<path d="M41.6863 25.6701L35.0858 21.8608L29.6574 27.1085L34.6185 31.9044L41.6867 27.8251C42.0759 27.6008 42.3086 27.1975 42.3086 26.7478C42.3086 26.298 42.0759 25.8951 41.6863 25.6701Z" fill="#002534"/>
<path d="M33.9656 21.2142L26.7015 17.0211L10.7831 8.86328L28.7626 26.2437L33.9656 21.2142Z" fill="#002534"/>
<path d="M11.0474 45.0976L26.7293 36.4595L33.4983 32.5516L28.7626 27.9736L11.0474 45.0976Z" fill="#002534"/>
<path d="M9.72085 9.56641L9.70428 44.6667L27.8678 27.1084L9.72085 9.56641Z" fill="#002534"/>
</svg>
