<svg width="191" height="58" viewBox="0 0 191 58" fill="none" xmlns="http://www.w3.org/2000/svg">
<path d="M183.65 57.8229H8.20936C4.15 57.8229 0.85968 54.5326 0.85968 50.4732V7.34968C0.85968 3.29032 4.15 0 8.20936 0H183.65C187.709 0 191 3.29071 191 7.34968V50.4736C191 54.5326 187.709 57.8229 183.65 57.8229Z" fill="#002534"/>
<path d="M60.8896 18.8354H61.5996L57.443 9.79937H56.7846L52.628 18.8354H53.338L54.4869 16.2924H59.7278L60.8896 18.8354ZM54.745 15.7374L57.1073 10.5223L59.4825 15.7374H54.745Z" fill="white"/>
<path d="M67.4435 12.0971L64.7326 18.1255L62.0476 12.0971H61.3635L64.397 18.8354H65.0554L68.1018 12.0971H67.4435Z" fill="white"/>
<path d="M71.5832 12.0455C70.5376 12.0455 69.5566 12.4069 68.8853 13.0007L69.208 13.4654C69.7631 12.962 70.6022 12.6135 71.5316 12.6135C72.8483 12.6135 73.5324 13.2847 73.5324 14.5369V15.079H71.2218C69.35 15.079 68.7046 15.9439 68.7046 16.9637C68.7046 18.1126 69.6211 18.8871 71.1314 18.8871C72.3061 18.8871 73.1323 18.4095 73.5582 17.6349V18.8354H74.1779V14.5627C74.1779 12.8975 73.2484 12.0455 71.5832 12.0455ZM71.2218 18.3578C70.0342 18.3578 69.35 17.8157 69.35 16.9379C69.35 16.1633 69.8405 15.5825 71.2347 15.5825H73.5324V16.8475C73.1452 17.8157 72.3577 18.3578 71.2218 18.3578Z" fill="white"/>
<path d="M77.1599 10.4577C77.4568 10.4577 77.6891 10.2254 77.6891 9.92845C77.6891 9.64446 77.4568 9.41211 77.1599 9.41211C76.863 9.41211 76.6306 9.65737 76.6306 9.94136C76.6306 10.2254 76.863 10.4577 77.1599 10.4577ZM76.8372 18.8354H77.4826V12.0971H76.8372V18.8354Z" fill="white"/>
<path d="M80.203 18.8354H80.8484V9.2572H80.203V18.8354Z" fill="white"/>
<path d="M85.8408 12.0455C84.7952 12.0455 83.8141 12.4069 83.1428 13.0007L83.4656 13.4654C84.0206 12.962 84.8597 12.6135 85.7891 12.6135C87.1058 12.6135 87.79 13.2847 87.79 14.5369V15.079H85.4793C83.6076 15.079 82.9621 15.9439 82.9621 16.9637C82.9621 18.1126 83.8786 18.8871 85.389 18.8871C86.5636 18.8871 87.3898 18.4095 87.8158 17.6349V18.8354H88.4354V14.5627C88.4354 12.8975 87.506 12.0455 85.8408 12.0455ZM85.4793 18.3578C84.2917 18.3578 83.6076 17.8157 83.6076 16.9379C83.6076 16.1633 84.0981 15.5825 85.4922 15.5825H87.79V16.8475C87.4027 17.8157 86.6153 18.3578 85.4793 18.3578Z" fill="white"/>
<path d="M94.4768 12.0455C93.2892 12.0455 92.2823 12.6264 91.7401 13.6332V9.2572H91.0947V18.8354H91.7143V17.2477C92.2436 18.2804 93.2634 18.8871 94.4768 18.8871C96.3743 18.8871 97.8072 17.48 97.8072 15.4663C97.8072 13.4396 96.3743 12.0455 94.4768 12.0455ZM94.438 18.3062C92.889 18.3062 91.7272 17.1573 91.7272 15.4663C91.7272 13.7752 92.889 12.6264 94.438 12.6264C95.9871 12.6264 97.1618 13.7752 97.1618 15.4663C97.1618 17.1573 95.9871 18.3062 94.438 18.3062Z" fill="white"/>
<path d="M99.8055 18.8354H100.451V9.2572H99.8055V18.8354Z" fill="white"/>
<path d="M108.877 15.4405C108.877 13.4396 107.509 12.0455 105.663 12.0455C103.817 12.0455 102.436 13.4654 102.436 15.4663C102.436 17.4671 103.868 18.8871 105.908 18.8871C106.928 18.8871 107.857 18.5127 108.451 17.7898L108.077 17.3639C107.56 17.9964 106.773 18.3062 105.921 18.3062C104.307 18.3062 103.133 17.2219 103.068 15.6212H108.864C108.864 15.5566 108.877 15.4921 108.877 15.4405ZM105.663 12.6135C107.096 12.6135 108.154 13.6591 108.244 15.1177H103.081C103.184 13.6462 104.23 12.6135 105.663 12.6135Z" fill="white"/>
<path d="M116.823 18.8871C118.759 18.8871 120.192 17.4671 120.192 15.4663C120.192 13.4654 118.759 12.0455 116.823 12.0455C114.886 12.0455 113.453 13.4654 113.453 15.4663C113.453 17.4671 114.886 18.8871 116.823 18.8871ZM116.823 18.3062C115.273 18.3062 114.112 17.1573 114.112 15.4663C114.112 13.7752 115.273 12.6264 116.823 12.6264C118.372 12.6264 119.533 13.7752 119.533 15.4663C119.533 17.1573 118.372 18.3062 116.823 18.3062Z" fill="white"/>
<path d="M125.486 12.0455C124.208 12.0455 123.265 12.6135 122.814 13.5558V12.0971H122.194V18.8354H122.839V15.2468C122.839 13.6462 123.808 12.6264 125.395 12.6264C126.764 12.6264 127.577 13.4267 127.577 14.9499V18.8354H128.222V14.8983C128.222 13.0136 127.125 12.0455 125.486 12.0455Z" fill="white"/>
<path d="M137.267 17.9577C136.996 18.2029 136.622 18.332 136.222 18.332C135.396 18.332 134.97 17.8544 134.97 16.9895V12.6522H137.112V12.0971H134.97V10.6255H134.324V12.0971H133.085V12.6522H134.324V17.054C134.324 18.19 134.97 18.8871 136.157 18.8871C136.661 18.8871 137.203 18.7322 137.538 18.4095L137.267 17.9577Z" fill="white"/>
<path d="M142.63 12.0455C141.378 12.0455 140.449 12.5876 139.984 13.5042V9.2572H139.338V18.8354H139.984V15.2468C139.984 13.6462 140.952 12.6264 142.54 12.6264C143.908 12.6264 144.721 13.4267 144.721 14.9499V18.8354H145.367V14.8983C145.367 13.0136 144.27 12.0455 142.63 12.0455Z" fill="white"/>
<path d="M153.742 15.4405C153.742 13.4396 152.374 12.0455 150.528 12.0455C148.682 12.0455 147.301 13.4654 147.301 15.4663C147.301 17.4671 148.734 18.8871 150.773 18.8871C151.793 18.8871 152.722 18.5127 153.316 17.7898L152.942 17.3639C152.426 17.9964 151.638 18.3062 150.786 18.3062C149.173 18.3062 147.998 17.2219 147.933 15.6212H153.729C153.729 15.5566 153.742 15.4921 153.742 15.4405ZM150.528 12.6135C151.961 12.6135 153.019 13.6591 153.11 15.1177H147.946C148.05 13.6462 149.095 12.6135 150.528 12.6135Z" fill="white"/>
<path d="M63.0683 39.0167C62.0981 39.5772 61.0417 39.7928 59.9638 39.7928C56.7731 39.7928 54.5095 37.5507 54.5095 34.4893C54.5095 31.3633 56.7731 29.1859 59.9854 29.1859C61.6023 29.1859 62.9605 29.7249 64.1462 30.9106L65.914 29.1859C64.4911 27.569 62.3784 26.7282 59.856 26.7282C55.1347 26.7282 51.6853 29.9836 51.6853 34.4893C51.6853 38.9951 55.1347 42.2505 59.8129 42.2505C61.9472 42.2505 64.1462 41.6037 65.72 40.3317V34.3169H63.0683V39.0167Z" fill="white"/>
<path d="M74.3318 42.1858C77.9106 42.1858 80.4761 39.7281 80.4761 36.2787C80.4761 32.8293 77.9106 30.3932 74.3318 30.3932C70.7962 30.3932 68.2092 32.8293 68.2092 36.2787C68.2092 39.7281 70.7962 42.1858 74.3318 42.1858ZM74.3318 39.879C72.3916 39.879 70.9256 38.4777 70.9256 36.2787C70.9256 34.0797 72.3916 32.6784 74.3318 32.6784C76.2937 32.6784 77.7597 34.0797 77.7597 36.2787C77.7597 38.4777 76.2937 39.879 74.3318 39.879Z" fill="white"/>
<path d="M88.2271 42.1858C91.8058 42.1858 94.3713 39.7281 94.3713 36.2787C94.3713 32.8293 91.8058 30.3932 88.2271 30.3932C84.6915 30.3932 82.1044 32.8293 82.1044 36.2787C82.1044 39.7281 84.6915 42.1858 88.2271 42.1858ZM88.2271 39.879C86.2868 39.879 84.8208 38.4777 84.8208 36.2787C84.8208 34.0797 86.2868 32.6784 88.2271 32.6784C90.1889 32.6784 91.6549 34.0797 91.6549 36.2787C91.6549 38.4777 90.1889 39.879 88.2271 39.879Z" fill="white"/>
<path d="M105.809 30.5225V32.0532C104.86 30.9106 103.437 30.3932 101.821 30.3932C98.522 30.3932 95.9997 32.5922 95.9997 35.9338C95.9997 39.2754 98.522 41.5175 101.821 41.5175C103.373 41.5175 104.731 41.0216 105.68 39.9868V40.5904C105.68 42.9188 104.558 44.083 102.015 44.083C100.419 44.083 98.7807 43.544 97.7675 42.7032L96.5602 44.7297C97.8753 45.8076 100.01 46.3682 102.165 46.3682C106.197 46.3682 108.374 44.471 108.374 40.2886V30.5225H105.809ZM102.23 39.2322C100.182 39.2322 98.7161 37.8956 98.7161 35.9338C98.7161 33.9935 100.182 32.6784 102.23 32.6784C104.257 32.6784 105.723 33.9935 105.723 35.9338C105.723 37.8956 104.257 39.2322 102.23 39.2322Z" fill="white"/>
<path d="M111.917 42.0349H114.612V26.0383H111.917V42.0349Z" fill="white"/>
<path d="M128.971 36.3434C128.971 32.7431 126.514 30.3932 123.151 30.3932C119.723 30.3932 117.2 32.8509 117.2 36.2787C117.2 39.7065 119.701 42.1858 123.56 42.1858C125.544 42.1858 127.161 41.539 128.195 40.3102L126.751 38.6502C125.932 39.491 124.918 39.9006 123.625 39.9006C121.62 39.9006 120.219 38.8226 119.895 37.1411H128.928C128.95 36.8824 128.971 36.559 128.971 36.3434ZM123.151 32.5491C124.918 32.5491 126.19 33.6917 126.406 35.3517H119.874C120.132 33.6701 121.404 32.5491 123.151 32.5491Z" fill="white"/>
<path d="M143.986 26.9438H137.777V42.0349H140.579V37.68H143.986C147.953 37.68 150.41 35.6319 150.41 32.3119C150.41 28.9703 147.953 26.9438 143.986 26.9438ZM143.856 35.3086H140.579V29.3153H143.856C146.314 29.3153 147.586 30.4147 147.586 32.3119C147.586 34.2091 146.314 35.3086 143.856 35.3086Z" fill="white"/>
<path d="M153.161 42.0349H155.856V26.0383H153.161V42.0349Z" fill="white"/>
<path d="M163.791 30.3932C161.937 30.3932 160.147 30.8675 158.918 31.8161L159.975 33.7779C160.837 33.0665 162.174 32.6353 163.467 32.6353C165.386 32.6353 166.335 33.5623 166.335 35.1361V35.3086H163.359C159.867 35.3086 158.573 36.8177 158.573 38.7364C158.573 40.7414 160.233 42.1858 162.864 42.1858C164.588 42.1858 165.839 41.6253 166.485 40.6336V42.0349H169.029V35.287C169.029 31.967 167.111 30.3932 163.791 30.3932ZM163.424 40.2239C162.044 40.2239 161.225 39.5987 161.225 38.6286C161.225 37.7878 161.721 37.0979 163.553 37.0979H166.335V38.4346C165.882 39.6203 164.739 40.2239 163.424 40.2239Z" fill="white"/>
<path d="M180.47 30.5225L176.826 39.0382L173.204 30.5225H170.402L175.425 42.078L175.231 42.5307C174.713 43.6733 174.153 44.1261 173.204 44.1261C172.471 44.1261 171.738 43.8242 171.221 43.3284L170.143 45.3118C170.876 45.9801 172.083 46.3682 173.226 46.3682C175.145 46.3682 176.611 45.5705 177.667 42.9619L183.057 30.5225H180.47Z" fill="white"/>
<path d="M46.6111 28.1736L39.367 23.9929L33.4091 29.7524L38.854 35.0159L46.6115 30.5388C47.0387 30.2926 47.294 29.85 47.294 29.3564C47.294 28.8628 47.0387 28.4206 46.6111 28.1736Z" fill="white"/>
<path d="M38.1376 23.2833L30.1651 18.6814L12.6943 9.72803L32.4271 28.8033L38.1376 23.2833Z" fill="white"/>
<path d="M12.9843 49.4959L30.1955 40.0154L37.6246 35.7264L32.4271 30.702L12.9843 49.4959Z" fill="white"/>
<path d="M11.5285 10.4999L11.5103 49.023L31.4451 29.7526L11.5285 10.4999Z" fill="white"/>
</svg>
