<svg width="245" height="91" viewBox="0 0 245 91" fill="none" xmlns="http://www.w3.org/2000/svg">
<g clip-path="url(#clip0)">
<path d="M210.733 24.8949C218.271 24.8949 224.381 19.1107 224.381 11.9756C224.381 4.8405 218.271 -0.943634 210.733 -0.943634C203.196 -0.943634 197.085 4.8405 197.085 11.9756C197.085 19.1107 203.196 24.8949 210.733 24.8949Z" fill="url(#paint0_linear)"/>
<path d="M208.484 26.0314C216.021 26.0314 222.132 20.2472 222.132 13.1121C222.132 5.97703 216.021 0.192902 208.484 0.192902C200.946 0.192902 194.836 5.97703 194.836 13.1121C194.836 20.2472 200.946 26.0314 208.484 26.0314Z" fill="url(#paint1_linear)"/>
<path d="M206.315 27.3971C213.853 27.3971 219.963 21.613 219.963 14.4779C219.963 7.34278 213.853 1.55862 206.315 1.55862C198.778 1.55862 192.667 7.34278 192.667 14.4779C192.667 21.613 198.778 27.3971 206.315 27.3971Z" fill="url(#paint2_linear)"/>
<path d="M142.449 21.8645C141.198 19.4018 142.293 16.4455 144.895 15.2614C145.631 14.926 146.41 14.7744 147.175 14.7774C147.271 14.7774 147.366 14.7766 147.46 14.7817C150.788 14.8462 182.941 15.8179 196.316 29.3296C210.431 43.5875 185.099 69.352 185.099 69.352C185.099 69.352 183.268 71.505 181.878 72.137C178.182 73.8191 173.746 72.3464 171.969 68.8475C170.764 66.4763 171.277 64.491 172.581 61.772C175.113 55.1417 180.114 33.9395 145.585 24.4327C144.258 24.0366 143.099 23.1461 142.449 21.8645Z" fill="url(#paint3_linear)"/>
<path d="M141.76 21.4163C140.744 18.9199 142.057 16.116 144.695 15.153C145.441 14.8806 146.213 14.7905 146.961 14.8498C147.053 14.8571 147.146 14.863 147.238 14.8754C150.481 15.1852 181.784 18.5186 193.72 32.6996C206.316 47.6627 179.458 70.9316 179.458 70.9316C179.458 70.9316 177.492 72.8971 176.084 73.4111C172.337 74.7783 168.129 73.012 166.684 69.4655C165.705 67.0614 166.37 65.1618 167.868 62.6046C170.888 56.3215 177.524 35.9979 144.61 24.1566C143.347 23.6704 142.29 22.7154 141.76 21.4163Z" fill="url(#paint4_linear)"/>
<path d="M141.095 21.0466C140.314 18.578 141.795 15.9776 144.403 15.238C145.142 15.0285 145.89 14.9963 146.603 15.1062C146.691 15.1194 146.78 15.1318 146.868 15.1501C149.957 15.6752 179.754 21.0715 190.107 35.5256C201.031 50.778 173.419 71.2377 173.419 71.2377C173.419 71.2377 171.377 72.9872 169.984 73.3819C166.279 74.432 162.376 72.4409 161.267 68.9339C160.515 66.5568 161.302 64.7788 162.941 62.4289C166.332 56.6071 174.296 37.5563 143.616 23.8784C142.442 23.3218 141.501 22.331 141.095 21.0466Z" fill="url(#paint5_linear)"/>
<path d="M45.0521 57.0851H42.1442L44.5756 44.201H44.5044L36.8999 57.0851H34.8506L32.109 44.201H32.061L29.6536 57.0851H26.8655L29.8454 41.11H34.422L36.7104 52.55H36.7583L43.361 41.11H48.0096L45.0521 57.0851Z" fill="white"/>
<path d="M59.1402 40.7036C61.5554 40.7036 63.4902 41.3245 64.9446 42.5651C66.3982 43.8056 67.1254 45.495 67.1254 47.6311C67.1254 49.4209 66.7115 51.0678 65.8853 52.5719C65.0591 54.0768 63.9064 55.2727 62.4288 56.1595C60.9512 57.0478 59.2981 57.4908 57.4708 57.4908C54.9752 57.4908 52.997 56.8698 51.5349 55.6293C50.0728 54.3881 49.3425 52.6994 49.3425 50.5633C49.3425 47.8259 50.284 45.4979 52.1662 43.58C54.0507 41.6629 56.3746 40.7036 59.1402 40.7036ZM57.4708 55.0545C59.4884 55.0545 61.0974 54.3397 62.2973 52.911C63.4972 51.4823 64.0975 49.8046 64.0975 47.8794C64.0975 46.5107 63.6442 45.3705 62.7383 44.4603C61.8324 43.5507 60.5845 43.0952 58.9956 43.0952C57.0414 43.0952 55.4478 43.8173 54.2162 45.2614C52.9847 46.7062 52.3689 48.3759 52.3689 50.2711C52.3689 51.6397 52.8214 52.7799 53.7273 53.6894C54.634 54.5997 55.8818 55.0545 57.4708 55.0545Z" fill="white"/>
<path d="M84.7171 41.11L74.4669 57.0851H71.7492L69.0083 41.11H72.1066L73.7992 53.4756H73.8944L81.403 41.11H84.7171Z" fill="white"/>
<path d="M94.5852 57.0851H83.2628L86.2427 41.11H96.8735L96.421 43.5464H88.6501L87.8874 47.6766H95.3008L94.8475 50.0229H87.458L86.6001 54.6034H95.0385L94.5852 57.0851Z" fill="white"/>
<path d="M113.489 40.7036C115.904 40.7036 117.839 41.3245 119.293 42.5651C120.747 43.8056 121.474 45.495 121.474 47.6311C121.474 49.4209 121.06 51.0678 120.234 52.5719C119.408 54.0768 118.255 55.2727 116.778 56.1595C115.3 57.0478 113.647 57.4908 111.82 57.4908C109.324 57.4908 107.346 56.8698 105.884 55.6293C104.422 54.3881 103.691 52.6994 103.691 50.5633C103.691 47.8259 104.633 45.4979 106.515 43.58C108.399 41.6629 110.723 40.7036 113.489 40.7036ZM111.82 55.0545C113.837 55.0545 115.446 54.3397 116.646 52.911C117.846 51.4823 118.446 49.8046 118.446 47.8794C118.446 46.5107 117.993 45.3705 117.087 44.4603C116.181 43.5507 114.933 43.0952 113.344 43.0952C111.39 43.0952 109.797 43.8173 108.565 45.2614C107.333 46.7062 106.718 48.3759 106.718 50.2711C106.718 51.6397 107.17 52.7799 108.076 53.6894C108.983 54.5997 110.231 55.0545 111.82 55.0545Z" fill="white"/>
<path d="M137.373 57.0851H133.727L128.196 44.6749H128.148L125.837 57.0851H122.905L125.884 41.11H129.698L135.133 53.1366H135.181L137.421 41.11H140.353L137.373 57.0851Z" fill="white"/>
</g>
<defs>
<linearGradient id="paint0_linear" x1="205.274" y1="23.831" x2="215.24" y2="-0.243817" gradientUnits="userSpaceOnUse">
<stop stop-color="#096A92"/>
<stop offset="1" stop-color="#00B19D"/>
</linearGradient>
<linearGradient id="paint1_linear" x1="203.024" y1="24.9674" x2="212.991" y2="0.8926" gradientUnits="userSpaceOnUse">
<stop offset="6.76629e-07" stop-color="#83F21F"/>
<stop offset="1" stop-color="#9FFC00"/>
</linearGradient>
<linearGradient id="paint2_linear" x1="200.855" y1="26.3329" x2="210.822" y2="2.25809" gradientUnits="userSpaceOnUse">
<stop offset="6.76629e-07" stop-color="#25B459"/>
<stop offset="1" stop-color="#69FC00"/>
</linearGradient>
<linearGradient id="paint3_linear" x1="155.407" y1="47.3406" x2="195.872" y2="26.7896" gradientUnits="userSpaceOnUse">
<stop stop-color="#096A92"/>
<stop offset="1" stop-color="#00B19D"/>
</linearGradient>
<linearGradient id="paint4_linear" x1="152.249" y1="47.2477" x2="193.54" y2="30.4311" gradientUnits="userSpaceOnUse">
<stop offset="6.76629e-07" stop-color="#83F21F"/>
<stop offset="1" stop-color="#9FFC00"/>
</linearGradient>
<linearGradient id="paint5_linear" x1="149.189" y1="46.5947" x2="190.242" y2="33.6066" gradientUnits="userSpaceOnUse">
<stop offset="6.76629e-07" stop-color="#25B459"/>
<stop offset="1" stop-color="#69FC00"/>
</linearGradient>
<clipPath id="clip0">
<rect width="245" height="91" fill="white"/>
</clipPath>
</defs>
</svg>
