<svg width="207" height="207" viewBox="0 0 207 207" fill="none" xmlns="http://www.w3.org/2000/svg">
<g filter="url(#filter0_d)">
<circle cx="103.5" cy="103.5" r="80.5" transform="rotate(-90 103.5 103.5)" fill="url(#paint0_linear)"/>
<circle cx="103.5" cy="103.5" r="77.5" transform="rotate(-90 103.5 103.5)" stroke="white" stroke-width="6"/>
</g>
<path d="M98.9531 107.781C98.9531 117.219 97 124.438 93.0938 129.438C89.1875 134.438 83.4688 136.938 75.9375 136.938C68.5 136.938 62.8125 134.484 58.875 129.578C54.9375 124.672 52.9219 117.641 52.8281 108.484V95.9219C52.8281 86.3906 54.7969 79.1562 58.7344 74.2188C62.7031 69.2812 68.4062 66.8125 75.8438 66.8125C83.2812 66.8125 88.9688 69.2656 92.9062 74.1719C96.8438 79.0469 98.8594 86.0625 98.9531 95.2188V107.781ZM85.4062 94C85.4062 88.3438 84.625 84.2344 83.0625 81.6719C81.5312 79.0781 79.125 77.7812 75.8438 77.7812C72.6562 77.7812 70.2969 79.0156 68.7656 81.4844C67.2656 83.9219 66.4688 87.75 66.375 92.9688V109.562C66.375 115.125 67.125 119.266 68.625 121.984C70.1562 124.672 72.5938 126.016 75.9375 126.016C79.25 126.016 81.6406 124.719 83.1094 122.125C84.5781 119.531 85.3438 115.562 85.4062 110.219V94ZM141.047 136H127.5V83.7812L111.328 88.7969V77.7812L139.594 67.6562H141.047V136Z" fill="white"/>
<defs>
<filter id="filter0_d" x="0" y="0" width="207" height="207" filterUnits="userSpaceOnUse" color-interpolation-filters="sRGB">
<feFlood flood-opacity="0" result="BackgroundImageFix"/>
<feColorMatrix in="SourceAlpha" type="matrix" values="0 0 0 0 0 0 0 0 0 0 0 0 0 0 0 0 0 0 127 0"/>
<feMorphology radius="3" operator="dilate" in="SourceAlpha" result="effect1_dropShadow"/>
<feOffset/>
<feGaussianBlur stdDeviation="10"/>
<feColorMatrix type="matrix" values="0 0 0 0 0 0 0 0 0 0 0 0 0 0 0 0 0 0 0.13 0"/>
<feBlend mode="normal" in2="BackgroundImageFix" result="effect1_dropShadow"/>
<feBlend mode="normal" in="SourceGraphic" in2="effect1_dropShadow" result="shape"/>
</filter>
<linearGradient id="paint0_linear" x1="103" y1="-15.5" x2="103.5" y2="184" gradientUnits="userSpaceOnUse">
<stop stop-color="#25B459"/>
<stop offset="0.705351" stop-color="#69FC00"/>
</linearGradient>
</defs>
</svg>
