<svg width="69" height="69" viewBox="0 0 69 69" fill="none" xmlns="http://www.w3.org/2000/svg">
<path fill-rule="evenodd" clip-rule="evenodd" d="M50.6392 8.8197C50.6392 3.94872 54.6001 0 59.4863 0C64.3724 0 68.3334 3.94872 68.3334 8.8197C68.3334 13.6907 64.3724 17.6394 59.4863 17.6394C54.6001 17.6394 50.6392 13.6907 50.6392 8.8197ZM63.3672 8.82003C63.3672 6.6833 61.6296 4.95114 59.4863 4.95114C57.3429 4.95114 55.6054 6.6833 55.6054 8.82003C55.6054 10.9568 57.3429 12.6889 59.4863 12.6889C61.6296 12.6889 63.3672 10.9568 63.3672 8.82003ZM46.2197 25.7626C47.0596 24.6819 48.6194 24.4846 49.7034 25.322C50.6889 26.0832 50.942 27.4374 50.3489 28.4893L50.1454 28.7949L40.4479 41.272C39.6807 42.2591 38.314 42.5085 37.2578 41.9082L36.9512 41.7025L27.6185 34.395L19.2397 45.2532C18.4795 46.2382 17.1219 46.4952 16.0648 45.9074L15.7576 45.7056C14.7695 44.9477 14.5117 43.5944 15.1013 42.5405L15.3038 42.2342L25.2134 29.3946C25.979 28.4025 27.3491 28.15 28.4079 28.7513L28.7153 28.9574L38.0508 36.2697L46.2197 25.7626ZM45.1805 5.25456C45.1805 3.88743 44.0688 2.77915 42.6974 2.77915H18.6355L17.86 2.79206C7.09029 3.15275 0 11.0377 0 22.2331V48.9093L0.0118761 49.7059C0.343808 60.7746 7.60856 68.3331 18.6355 68.3331H47.1219L47.8977 68.3202C58.6713 67.9606 65.7574 60.0994 65.7574 48.9093V25.6771L65.7348 25.3412C65.5703 24.133 64.5314 23.2017 63.2743 23.2017C61.903 23.2017 60.7912 24.31 60.7912 25.6771V48.9093L60.7776 49.6776C60.4775 58.0381 55.256 63.3823 47.1219 63.3823H18.6355L17.8979 63.3677C9.87767 63.0487 4.96618 57.499 4.96618 48.9093V22.2331L4.97987 21.4641C5.28038 13.0951 10.5085 7.72997 18.6355 7.72997H42.6974L43.0344 7.70737C44.2464 7.54346 45.1805 6.50776 45.1805 5.25456Z" fill="#002534"/>
</svg>
