<svg width="62" height="70" viewBox="0 0 62 70" fill="none" xmlns="http://www.w3.org/2000/svg">
<path fill-rule="evenodd" clip-rule="evenodd" d="M46.0968 2.89352C45.9402 1.73002 44.9505 0.833252 43.753 0.833252C42.4467 0.833252 41.3877 1.90048 41.3877 3.21697V5.85234H20.6412V3.21697L20.6196 2.89352C20.463 1.73002 19.4733 0.833252 18.2758 0.833252C16.9695 0.833252 15.9105 1.90048 15.9105 3.21697V5.91152C6.2174 6.57908 0.25 12.8596 0.25 22.993V51.7554C0.25 62.6312 6.94099 69.1665 17.6622 69.1665H44.3374C55.0715 69.1665 61.7498 62.7407 61.7498 51.9958V22.993C61.7806 12.856 55.8324 6.57722 46.1184 5.91124V3.21697L46.0968 2.89352ZM41.3877 10.6196V13.676L41.4093 13.9995C41.5659 15.163 42.5555 16.0598 43.753 16.0598C45.0594 16.0598 46.1184 14.9925 46.1184 13.676V10.69C53.186 11.2781 57.0416 15.534 57.019 22.9854V24.3662H4.98068V22.9928C4.98068 15.546 8.85743 11.281 15.9105 10.6905V13.676L15.9321 13.9995C16.0887 15.163 17.0783 16.0598 18.2758 16.0598C19.5822 16.0598 20.6412 14.9925 20.6412 13.676V10.6196H41.3877ZM4.98068 29.1336V51.7552C4.98068 59.9641 9.52112 64.3989 17.6621 64.3989H44.3374C52.5064 64.3989 57.0189 60.0569 57.0189 51.9956L57.019 29.1336H4.98068ZM47.404 39.1628C47.404 37.8463 46.345 36.779 45.0387 36.779L44.6885 36.8008C43.5339 36.9587 42.6441 37.956 42.6441 39.1628C42.6441 40.4793 43.7031 41.5465 45.0387 41.5465L45.3596 41.5247C46.5142 41.3669 47.404 40.3696 47.404 39.1628ZM31.0436 36.779C32.3499 36.779 33.409 37.8463 33.409 39.1628C33.409 40.3696 32.5191 41.3669 31.3645 41.5247L31.0436 41.5465C29.708 41.5465 28.649 40.4793 28.649 39.1628C28.649 37.956 29.5389 36.9587 30.6934 36.8008L31.0436 36.779ZM19.3848 39.1628C19.3848 37.8463 18.3258 36.779 17.0194 36.779L16.6693 36.8008C15.5147 36.9587 14.6248 37.956 14.6248 39.1628C14.6248 40.4793 15.6839 41.5465 16.9902 41.5465L17.3404 41.5247C18.495 41.3669 19.3848 40.3696 19.3848 39.1628ZM45.0387 49.1312C46.345 49.1312 47.404 50.1985 47.404 51.515C47.404 52.7217 46.5142 53.7191 45.3596 53.8769L45.0387 53.8987C43.7031 53.8987 42.6441 52.8315 42.6441 51.515C42.6441 50.3082 43.5339 49.3108 44.6885 49.153L45.0387 49.1312ZM33.409 51.515C33.409 50.1985 32.3499 49.1312 31.0436 49.1312L30.6934 49.153C29.5389 49.3108 28.649 50.3082 28.649 51.515C28.649 52.8315 29.708 53.8987 31.0436 53.8987L31.3645 53.8769C32.5191 53.7191 33.409 52.7217 33.409 51.515ZM17.0194 49.1312C18.3258 49.1312 19.3848 50.1985 19.3848 51.515C19.3848 52.7217 18.495 53.7191 17.3404 53.8769L16.9902 53.8987C15.6839 53.8987 14.6248 52.8315 14.6248 51.515C14.6248 50.3082 15.5147 49.3108 16.6693 49.153L17.0194 49.1312Z" fill="#002534"/>
</svg>
