<svg width="23" height="24" viewBox="0 0 23 24" fill="none" xmlns="http://www.w3.org/2000/svg">
<path d="M14.2516 11.7965L22.3237 3.74316C22.6772 3.38967 22.8758 2.91023 22.8758 2.41032C22.8758 1.9104 22.6772 1.43097 22.3237 1.07747C21.9703 0.723981 21.4908 0.525391 20.9909 0.525391C20.491 0.525391 20.0116 0.723981 19.6581 1.07747L11.6047 9.14963L3.5513 1.07747C3.1978 0.723981 2.71837 0.525391 2.21845 0.525391C1.71854 0.525391 1.2391 0.723981 0.885608 1.07747C0.532116 1.43097 0.333526 1.9104 0.333526 2.41032C0.333526 2.91023 0.532116 3.38967 0.885608 3.74316L8.95776 11.7965L0.885608 19.8499C0.709657 20.0244 0.570001 20.2321 0.474696 20.4608C0.379391 20.6896 0.330322 20.935 0.330322 21.1828C0.330322 21.4306 0.379391 21.676 0.474696 21.9047C0.570001 22.1335 0.709657 22.3411 0.885608 22.5156C1.06012 22.6916 1.26775 22.8312 1.49651 22.9265C1.72527 23.0218 1.97063 23.0709 2.21845 23.0709C2.46627 23.0709 2.71164 23.0218 2.9404 22.9265C3.16916 22.8312 3.37678 22.6916 3.5513 22.5156L11.6047 14.4435L19.6581 22.5156C19.8326 22.6916 20.0402 22.8312 20.269 22.9265C20.4977 23.0218 20.7431 23.0709 20.9909 23.0709C21.2387 23.0709 21.4841 23.0218 21.7129 22.9265C21.9416 22.8312 22.1492 22.6916 22.3237 22.5156C22.4997 22.3411 22.6394 22.1335 22.7347 21.9047C22.83 21.676 22.879 21.4306 22.879 21.1828C22.879 20.935 22.83 20.6896 22.7347 20.4608C22.6394 20.2321 22.4997 20.0244 22.3237 19.8499L14.2516 11.7965Z" fill="#C6C6C6"/>
</svg>
