<svg width="70" height="70" viewBox="0 0 70 70" fill="none" xmlns="http://www.w3.org/2000/svg">
<path fill-rule="evenodd" clip-rule="evenodd" d="M35 0.833252C16.1303 0.833252 0.833344 16.1302 0.833344 34.9999C0.833344 53.8697 16.1303 69.1666 35 69.1666C53.8697 69.1666 69.1667 53.8697 69.1667 34.9999C69.1667 16.1302 53.8697 0.833252 35 0.833252ZM35 5.77973C51.1379 5.77973 64.2202 18.8621 64.2202 35C64.2202 51.1378 51.1379 64.2202 35 64.2202C18.8621 64.2202 5.77978 51.1378 5.77978 35C5.77978 18.8621 18.8621 5.77973 35 5.77973ZM45.2786 21.6225L28.4962 26.8745C27.7225 27.1166 27.1166 27.7225 26.8745 28.4962L21.6224 45.2786C21.0262 47.1837 22.8163 48.9738 24.7214 48.3776L41.5039 43.1256C42.2775 42.8834 42.8834 42.2776 43.1255 41.5039L48.3776 24.7215C48.9738 22.8163 47.1837 21.0263 45.2786 21.6225ZM42.2448 27.7519L38.7889 38.7891L27.7518 42.245L31.2077 31.2078L42.2448 27.7519Z" fill="#002534"/>
</svg>
