<svg width="62" height="70" viewBox="0 0 62 70" fill="none" xmlns="http://www.w3.org/2000/svg">
<path fill-rule="evenodd" clip-rule="evenodd" d="M17.8038 69.1668C16.3961 69.1668 15.0602 69.0575 13.8029 68.8422L13.058 68.7022C4.95713 67.0177 0.248962 60.8131 0.248962 51.3694V18.6309C0.248962 17.4897 0.317296 16.3964 0.453962 15.3509C1.64638 6.17716 7.95013 0.833496 17.8038 0.833496H44.1975C55.1172 0.833496 61.6465 7.3935 61.749 18.3678V18.6309V51.3694C61.749 62.4975 55.2026 69.1668 44.1975 69.1668H17.8038ZM17.8038 5.8116C9.41249 5.8116 5.15874 10.1268 5.15874 18.6309V51.3694C5.15874 59.8735 9.41249 64.1888 17.8038 64.1888H44.1668C52.5547 64.1888 56.7812 59.8735 56.7812 51.3694V18.6309C56.7812 10.1268 52.5547 5.8116 44.1668 5.8116H17.8038ZM45.7111 49.4663C45.7111 48.0997 44.6212 46.9927 43.2751 46.9927H18.6375C17.2913 46.9927 16.198 48.0997 16.198 49.4663C16.198 50.833 17.2913 51.94 18.6375 51.94H43.2751C44.6212 51.94 45.7111 50.833 45.7111 49.4663ZM43.2751 32.5096C44.2147 32.4071 45.1338 32.8581 45.636 33.6679C46.1383 34.4845 46.1383 35.5163 45.636 36.3329C45.1338 37.1426 44.2147 37.5936 43.2751 37.4911H18.6375C17.387 37.3476 16.4406 36.2782 16.4406 35.0004C16.4406 33.7225 17.387 32.6497 18.6375 32.5096H43.2751ZM30.2371 20.551C30.2371 19.2732 29.2907 18.2003 28.0402 18.0602H18.6683C17.4143 18.2003 16.4679 19.2732 16.4679 20.551C16.4679 21.8254 17.4143 22.8982 18.6683 23.0383H28.0402C29.2907 22.8982 30.2371 21.8254 30.2371 20.551Z" fill="#002534"/>
</svg>
