<svg width="28" height="26" viewBox="0 0 28 26" fill="none" xmlns="http://www.w3.org/2000/svg">
<path d="M13.7785 18.2234C13.8048 18.2569 13.8384 18.284 13.8768 18.3027C13.9152 18.3213 13.9573 18.331 14 18.331C14.0427 18.331 14.0848 18.3213 14.1232 18.3027C14.1616 18.284 14.1952 18.2569 14.2215 18.2234L18.159 13.2559C18.3031 13.0736 18.173 12.8037 17.9375 12.8037H15.3324V0.940607C15.3324 0.786359 15.2059 0.660156 15.0512 0.660156H12.9418C12.7871 0.660156 12.6605 0.786359 12.6605 0.940607V12.8002H10.0625C9.82695 12.8002 9.69688 13.0701 9.84102 13.2524L13.7785 18.2234ZM26.8672 16.9964H24.7578C24.6031 16.9964 24.4766 17.1226 24.4766 17.2769V22.6756H3.52344V17.2769C3.52344 17.1226 3.39687 16.9964 3.24219 16.9964H1.13281C0.978125 16.9964 0.851562 17.1226 0.851562 17.2769V24.218C0.851562 24.8385 1.3543 25.3398 1.97656 25.3398H26.0234C26.6457 25.3398 27.1484 24.8385 27.1484 24.218V17.2769C27.1484 17.1226 27.0219 16.9964 26.8672 16.9964Z" fill="#ACACAC"/>
</svg>
