<svg width="28" height="27" viewBox="0 0 28 27" fill="none" xmlns="http://www.w3.org/2000/svg">
<path d="M28 13.5C28 6.04336 21.7328 0 14 0C6.26719 0 0 6.04336 0 13.5C0 20.9566 6.26719 27 14 27C14.082 27 14.1641 27 14.2461 26.9947V16.49H11.2383V13.1098H14.2461V10.6207C14.2461 7.73613 16.0727 6.16465 18.7414 6.16465C20.0211 6.16465 21.1203 6.2543 21.4375 6.29648V9.31289H19.6C18.1508 9.31289 17.8664 9.97734 17.8664 10.9529V13.1045H21.3391L20.8852 16.4848H17.8664V26.4779C23.718 24.859 28 19.6646 28 13.5Z" fill="white"/>
</svg>
