<svg width="85" height="74" viewBox="0 0 85 74" fill="none" xmlns="http://www.w3.org/2000/svg">
<path d="M70.7333 24.8949C78.2708 24.8949 84.3812 19.1107 84.3812 11.9756C84.3812 4.84053 78.2708 -0.943604 70.7333 -0.943604C63.1957 -0.943604 57.0853 4.84053 57.0853 11.9756C57.0853 19.1107 63.1957 24.8949 70.7333 24.8949Z" fill="url(#paint0_linear)"/>
<path d="M68.4836 26.0313C76.0211 26.0313 82.1316 20.2472 82.1316 13.1121C82.1316 5.977 76.0211 0.192871 68.4836 0.192871C60.9461 0.192871 54.8357 5.977 54.8357 13.1121C54.8357 20.2472 60.9461 26.0313 68.4836 26.0313Z" fill="url(#paint1_linear)"/>
<path d="M66.3152 27.3971C73.8527 27.3971 79.9631 21.613 79.9631 14.4779C79.9631 7.34275 73.8527 1.55859 66.3152 1.55859C58.7776 1.55859 52.6672 7.34275 52.6672 14.4779C52.6672 21.613 58.7776 27.3971 66.3152 27.3971Z" fill="url(#paint2_linear)"/>
<path d="M2.44875 21.8646C1.19783 19.4018 2.29327 16.4456 4.8949 15.2614C5.63137 14.926 6.40962 14.7745 7.17549 14.7774C7.27064 14.7774 7.36578 14.7766 7.46016 14.7818C10.7882 14.8462 42.9408 15.818 56.3164 29.3296C70.4308 43.5875 45.0991 69.3521 45.0991 69.3521C45.0991 69.3521 43.268 71.5051 41.8778 72.137C38.1823 73.8191 33.7457 72.3465 31.9687 68.8475C30.7642 66.4763 31.2771 64.4911 32.5814 61.772C35.1127 55.1418 40.114 33.9395 5.58496 24.4328C4.25822 24.0366 3.09935 23.1461 2.44875 21.8646Z" fill="url(#paint3_linear)"/>
<path d="M1.76036 21.4165C0.743845 18.92 2.05742 16.1161 4.69464 15.1531C5.44117 14.8807 6.21321 14.7906 6.96052 14.8499C7.05335 14.8573 7.14619 14.8631 7.23825 14.8756C10.4812 15.1853 41.7835 18.5188 53.7202 32.6998C66.3161 47.6628 39.4581 70.9317 39.4581 70.9317C39.4581 70.9317 37.4923 72.8972 36.0836 73.4113C32.337 74.7785 28.1286 73.0122 26.6843 69.4656C25.7049 67.0615 26.3702 65.1619 27.8679 62.6047C30.8881 56.3216 37.5241 35.998 4.60953 24.1567C3.34701 23.6705 2.28951 22.7156 1.76036 21.4165Z" fill="url(#paint4_linear)"/>
<path d="M1.09497 21.0467C0.313625 18.5781 1.79508 15.9777 4.4029 15.238C5.14169 15.0286 5.88976 14.9964 6.60303 15.1062C6.69122 15.1194 6.78019 15.1319 6.86761 15.1502C9.95738 15.6752 39.7543 21.0716 50.1067 35.5257C61.0308 50.778 33.4185 71.2378 33.4185 71.2378C33.4185 71.2378 31.377 72.9872 29.9837 73.382C26.2789 74.4321 22.3761 72.4409 21.2667 68.934C20.5148 66.5569 21.3023 64.7789 22.9408 62.4289C26.3323 56.6071 34.2958 37.5563 3.61614 23.8784C2.44181 23.3219 1.50111 22.3311 1.09497 21.0467Z" fill="url(#paint5_linear)"/>
<defs>
<linearGradient id="paint0_linear" x1="65.2735" y1="23.8311" x2="75.2405" y2="-0.243786" gradientUnits="userSpaceOnUse">
<stop stop-color="#096A92"/>
<stop offset="1" stop-color="#00B19D"/>
</linearGradient>
<linearGradient id="paint1_linear" x1="63.0244" y1="24.9674" x2="72.9914" y2="0.892569" gradientUnits="userSpaceOnUse">
<stop offset="6.76629e-07" stop-color="#83F21F"/>
<stop offset="1" stop-color="#9FFC00"/>
</linearGradient>
<linearGradient id="paint2_linear" x1="60.8554" y1="26.3329" x2="70.8224" y2="2.25806" gradientUnits="userSpaceOnUse">
<stop offset="6.76629e-07" stop-color="#25B459"/>
<stop offset="1" stop-color="#69FC00"/>
</linearGradient>
<linearGradient id="paint3_linear" x1="15.4071" y1="47.3406" x2="55.8725" y2="26.7896" gradientUnits="userSpaceOnUse">
<stop stop-color="#096A92"/>
<stop offset="1" stop-color="#00B19D"/>
</linearGradient>
<linearGradient id="paint4_linear" x1="12.2492" y1="47.2478" x2="53.5395" y2="30.4312" gradientUnits="userSpaceOnUse">
<stop offset="6.76629e-07" stop-color="#83F21F"/>
<stop offset="1" stop-color="#9FFC00"/>
</linearGradient>
<linearGradient id="paint5_linear" x1="9.1886" y1="46.5948" x2="50.2422" y2="33.6067" gradientUnits="userSpaceOnUse">
<stop offset="6.76629e-07" stop-color="#25B459"/>
<stop offset="1" stop-color="#69FC00"/>
</linearGradient>
</defs>
</svg>
