<svg width="70" height="67" viewBox="0 0 70 67" fill="none" xmlns="http://www.w3.org/2000/svg">
<path d="M58.4889 22.8512C64.7991 22.8512 69.9145 17.7358 69.9145 11.4256C69.9145 5.11542 64.7991 0 58.4889 0C52.1787 0 47.0632 5.11542 47.0632 11.4256C47.0632 17.7358 52.1787 22.8512 58.4889 22.8512Z" fill="url(#paint0_linear)"/>
<path d="M56.6055 23.8566C62.9157 23.8566 68.0312 18.7412 68.0312 12.431C68.0312 6.12079 62.9157 1.00537 56.6055 1.00537C50.2953 1.00537 45.1799 6.12079 45.1799 12.431C45.1799 18.7412 50.2953 23.8566 56.6055 23.8566Z" fill="url(#paint1_linear)"/>
<path d="M54.7903 25.0642C61.1005 25.0642 66.2159 19.9487 66.2159 13.6385C66.2159 7.32833 61.1005 2.21289 54.7903 2.21289C48.4801 2.21289 43.3646 7.32833 43.3646 13.6385C43.3646 19.9487 48.4801 25.0642 54.7903 25.0642Z" fill="url(#paint2_linear)"/>
<path d="M1.32313 20.1712C0.275898 17.9932 1.19296 15.3787 3.37097 14.3314C3.98752 14.0348 4.63904 13.9008 5.28021 13.9034C5.35987 13.9034 5.43951 13.9027 5.51852 13.9072C8.30466 13.9642 35.2218 14.8236 46.4195 26.7732C58.2356 39.3827 37.0287 62.1686 37.0287 62.1686C37.0287 62.1686 35.4958 64.0726 34.3319 64.6315C31.2382 66.1192 27.524 64.8168 26.0363 61.7224C25.028 59.6253 25.4574 57.8695 26.5493 55.4649C28.6684 49.6011 32.8553 30.8501 3.94866 22.4425C2.83796 22.0921 1.86779 21.3046 1.32313 20.1712Z" fill="url(#paint3_linear)"/>
<path d="M0.746729 19.7749C-0.104267 17.5671 0.995422 15.0873 3.20322 14.2357C3.82819 13.9948 4.47452 13.9151 5.10014 13.9675C5.17786 13.974 5.25558 13.9792 5.33265 13.9902C8.04755 14.2642 34.2529 17.2122 44.246 29.7537C54.7908 42.9869 32.3061 63.5656 32.3061 63.5656C32.3061 63.5656 30.6605 65.3039 29.4811 65.7585C26.3446 66.9676 22.8215 65.4055 21.6123 62.269C20.7924 60.1428 21.3494 58.4629 22.6032 56.2013C25.1316 50.6446 30.687 32.6707 3.13197 22.1984C2.07502 21.7683 1.18971 20.9238 0.746729 19.7749Z" fill="url(#paint4_linear)"/>
<path d="M0.189781 19.4479C-0.464334 17.2648 0.775894 14.965 2.95908 14.3109C3.57758 14.1257 4.20384 14.0972 4.80096 14.1943C4.87479 14.206 4.94928 14.217 5.02246 14.2332C7.60912 14.6975 32.5542 19.47 41.2209 32.253C50.3662 45.742 27.25 63.8364 27.25 63.8364C27.25 63.8364 25.5409 65.3836 24.3745 65.7327C21.273 66.6614 18.0057 64.9005 17.0769 61.7989C16.4474 59.6967 17.1067 58.1242 18.4784 56.046C21.3177 50.8972 27.9845 34.0489 2.30043 21.9523C1.31732 21.4601 0.529791 20.5839 0.189781 19.4479Z" fill="url(#paint5_linear)"/>
<defs>
<linearGradient id="paint0_linear" x1="53.9182" y1="21.9104" x2="63.0746" y2="0.974209" gradientUnits="userSpaceOnUse">
<stop stop-color="#096A92"/>
<stop offset="1" stop-color="#00B19D"/>
</linearGradient>
<linearGradient id="paint1_linear" x1="52.0353" y1="22.9157" x2="61.1917" y2="1.97949" gradientUnits="userSpaceOnUse">
<stop offset="6.76629e-07" stop-color="#83F21F"/>
<stop offset="1" stop-color="#9FFC00"/>
</linearGradient>
<linearGradient id="paint2_linear" x1="50.2195" y1="24.123" x2="59.376" y2="3.18679" gradientUnits="userSpaceOnUse">
<stop offset="6.76629e-07" stop-color="#25B459"/>
<stop offset="1" stop-color="#69FC00"/>
</linearGradient>
<linearGradient id="paint3_linear" x1="12.1715" y1="42.7019" x2="46.7855" y2="26.0612" gradientUnits="userSpaceOnUse">
<stop stop-color="#096A92"/>
<stop offset="1" stop-color="#00B19D"/>
</linearGradient>
<linearGradient id="paint4_linear" x1="9.52765" y1="42.6198" x2="44.6135" y2="29.0932" gradientUnits="userSpaceOnUse">
<stop offset="6.76629e-07" stop-color="#83F21F"/>
<stop offset="1" stop-color="#9FFC00"/>
</linearGradient>
<linearGradient id="paint5_linear" x1="6.96552" y1="42.0424" x2="41.6624" y2="31.6514" gradientUnits="userSpaceOnUse">
<stop offset="6.76629e-07" stop-color="#25B459"/>
<stop offset="1" stop-color="#69FC00"/>
</linearGradient>
</defs>
</svg>
