<svg width="59" height="69" viewBox="0 0 59 69" fill="none" xmlns="http://www.w3.org/2000/svg">
<path fill-rule="evenodd" clip-rule="evenodd" d="M29.1651 0H28.9214C17.4101 0 6.85569 8.35226 5.83173 19.4099C5.76344 20.201 5.71689 21.0093 5.68683 21.88L5.64476 23.9158L5.63644 25.741L5.68783 25.5329C5.21278 27.8494 4.11792 29.9981 2.51649 31.7538L2.28699 32.049C0.915791 34.132 0.127929 36.543 0.00597807 39.0326L0.00308846 39.8467C-0.0669158 43.121 1.05513 46.3612 3.16598 48.9346C6.0285 51.957 9.73395 53.7599 13.711 54.1425C23.8825 55.2471 34.1735 55.2471 44.3734 54.1396C48.3232 53.776 52.0397 51.9678 54.7823 49.0571C56.853 46.5798 57.9831 43.6068 58.08 40.5286L58.0833 39.1507C57.97 36.5516 57.1773 34.1382 55.7895 32.0643L55.5787 31.7937L55.0638 31.1881C53.9067 29.7429 53.0618 28.0782 52.5811 26.2977L52.4289 25.6584L52.3973 24.9879C52.3878 24.6863 52.3832 24.3519 52.3817 23.9343L52.3812 21.6346C52.3734 20.7548 52.3473 20.1292 52.2865 19.425C51.2276 8.34642 40.6701 0 29.1651 0ZM28.9213 4.76725H29.165C38.3815 4.76725 46.7891 11.414 47.5967 19.8618C47.6444 20.4164 47.6657 20.9455 47.6721 21.7315L47.6813 24.8224C47.6916 25.3167 47.711 25.7277 47.7442 26.1903L47.7882 26.5069L48.0099 27.4492C48.6669 29.9418 49.8468 32.2671 51.4711 34.2719L51.9422 34.8244L51.8901 34.7377C52.791 36.0841 53.3043 37.6466 53.376 39.2578L53.3736 39.8162C53.428 42.0578 52.6848 44.1877 51.2786 45.8742C49.4205 47.8399 46.7642 49.1323 43.9088 49.3953C34.005 50.4704 24.0509 50.4704 14.1849 49.3991C11.2983 49.1213 8.64009 47.8279 6.67508 45.7594C5.40127 44.1965 4.66607 42.0735 4.71222 39.8976L4.71277 39.1505L4.77245 38.4996C4.91621 37.4106 5.28005 36.307 5.844 35.2908L6.13001 34.8175C8.22661 32.4594 9.66546 29.592 10.2992 26.5018L10.3484 26.0173L10.3706 22.8764L10.4255 21.2829C10.4504 20.7802 10.4823 20.3026 10.5222 19.8396C11.3024 11.4144 19.7022 4.76725 28.9213 4.76725ZM6.13001 34.8175C6.0793 34.8745 6.02821 34.9313 5.97673 34.9877L6.14506 34.7926L6.13001 34.8175ZM37.9522 60.4432C36.9389 59.618 35.4565 59.7806 34.6413 60.8063C34.288 61.2509 33.8789 61.6497 33.4237 61.9932C31.88 63.2039 29.9536 63.743 28.0385 63.5149C26.1262 63.2871 24.3879 62.3138 23.2084 60.8152C22.398 59.7855 20.9164 59.6158 19.8993 60.4362C18.8821 61.2565 18.7144 62.7562 19.5248 63.7859C21.4806 66.2708 24.3464 67.8755 27.4881 68.2497C30.627 68.6236 33.7877 67.739 36.2738 65.7883C37.0118 65.232 37.7082 64.553 38.3109 63.7947C39.1261 62.769 38.9655 61.2685 37.9522 60.4432Z" fill="#002534"/>
</svg>
