<svg width="69" height="65" viewBox="0 0 69 65" fill="none" xmlns="http://www.w3.org/2000/svg">
<path fill-rule="evenodd" clip-rule="evenodd" d="M19.8578 0H48.4755C59.4425 0 68.3333 9.09228 68.3333 20.3078V22.8462C68.3337 22.8641 68.3339 22.8821 68.3339 22.9001C68.3339 22.9181 68.3337 22.9361 68.3333 22.9541V41.0712C68.3337 41.0891 68.3339 41.1071 68.3339 41.1251C68.3339 41.1358 68.3338 41.1465 68.3337 41.1572C68.3336 41.1645 68.3335 41.1718 68.3333 41.1791V44.6089C68.3333 55.8244 59.4425 64.9167 48.4755 64.9167H19.8578C8.89081 64.9167 0 55.8244 0 44.6089V20.3078C0 9.09228 8.89081 0 19.8578 0ZM63.3669 20.308V20.3606H52.4471L51.8217 20.3783C45.8179 20.7135 41.0503 25.7931 41.0503 32.0126C41.0541 38.4482 46.1535 43.6607 52.4456 43.6646H63.3669V44.609C63.3669 53.0195 56.6996 59.8379 48.4755 59.8379H19.8577C11.6336 59.8379 4.96632 53.0195 4.96632 44.609V20.308C4.96632 11.8975 11.6336 5.0791 19.8577 5.0791H48.4755C56.6996 5.0791 63.3669 11.8975 63.3669 20.308ZM52.4486 25.4396L63.3669 25.4396V38.5857H52.4471L51.9447 38.5656C48.629 38.3017 46.0187 35.469 46.0167 32.0111C46.0167 28.3839 48.8956 25.4418 52.4486 25.4396ZM56.4465 31.8039C56.4465 30.4014 55.3348 29.2644 53.9634 29.2644H52.9314L52.5944 29.2876C51.3824 29.4557 50.4482 30.5182 50.4482 31.8039C50.4482 33.2064 51.5599 34.3433 52.9314 34.3433H53.9634L54.3003 34.3201C55.5124 34.152 56.4465 33.0895 56.4465 31.8039ZM37.859 17.9053C37.859 16.5028 36.7473 15.3658 35.3758 15.3658H17.5003L17.1634 15.389C15.9513 15.5572 15.0171 16.6197 15.0171 17.9053C15.0171 19.3078 16.1289 20.4448 17.5003 20.4448H35.3758L35.7128 20.4216C36.9248 20.2534 37.859 19.1909 37.859 17.9053Z" fill="#002534"/>
</svg>
